<?xml version="1.0" encoding="UTF-8"?>
<svg id="Layer_1" data-name="Layer 1" xmlns="http://www.w3.org/2000/svg" version="1.1" viewBox="0 0 841.89 595.28">
  <defs>
    <style>
      .cls-1 {
        fill: #00b4a1;
      }

      .cls-1, .cls-2 {
        stroke-width: 0px;
      }

      .cls-2 {
        fill: #231f20;
      }
    </style>
  </defs>
  <path class="cls-2" d="M278.31,215.29s0,139.35,0,139.35c0,2.8,1.06,5.23,3.2,7.28,2.14,2.06,4.61,3.08,7.4,3.08,2.96,0,5.55-1.02,7.78-3.08,2.22-2.05,3.32-4.48,3.32-7.28v-16.28c0-13.9,11.26-25.16,25.16-25.16h0v41.44c0,6.41-1.65,12.33-4.93,17.76-3.29,5.42-7.69,9.74-13.2,12.95-5.51,3.2-11.55,4.81-18.14,4.81s-12.37-1.61-17.87-4.81c-5.51-3.21-9.87-7.53-13.08-12.95-3.2-5.43-4.81-11.35-4.81-17.76v-114.19c0-13.9,11.26-25.16,25.16-25.16h0Z"/>
  <path class="cls-2" d="M537.35,250.81v114.19c0,13.9-11.27,25.16-25.16,25.16h0v-139.35c0-2.8-1.06-5.23-3.2-7.28-2.14-2.06-4.61-3.08-7.4-3.08-2.96,0-5.55,1.03-7.78,3.08-2.01,1.85-3.1,4.02-3.29,6.5-.02.26-.03.52-.03.78v38.51c0,13.87-11.25,25.12-25.12,25.12h0v-63.63c0-.24,0-.48-.02-.71-.17-2.51-1.27-4.7-3.3-6.57-2.23-2.06-4.82-3.08-7.78-3.08-2.79,0-5.26,1.03-7.4,3.08-2.14,2.05-3.2,4.47-3.2,7.28v114.19c0,13.89-11.26,25.16-25.16,25.16h0v-139.35c0-6.42,1.61-12.33,4.8-17.77,3.21-5.42,7.57-9.74,13.08-12.95,5.5-3.2,11.47-4.8,17.88-4.8s12.63,1.61,18.14,4.8c1.98,1.16,3.82,2.46,5.52,3.91,1.7-1.45,3.54-2.75,5.53-3.91,5.51-3.2,11.56-4.8,18.14-4.8s12.37,1.61,17.88,4.8c5.51,3.21,9.87,7.53,13.08,12.95,3.2,5.43,4.81,11.35,4.81,17.77Z"/>
  <path class="cls-2" d="M402.66,232.43c-3.21-4.56-7.56-8.18-13.08-10.88-5.5-2.69-11.47-4.04-17.88-4.04s-12.62,1.35-18.14,4.04c-5.51,2.7-9.9,6.33-13.19,10.88-2.42,3.37-3.95,6.95-4.58,10.77-.23,1.36-.34,2.74-.34,4.16v112.95c0,5.39,1.61,10.36,4.8,14.93,3.21,4.55,7.57,8.18,13.08,10.88,5.5,2.69,11.47,4.04,17.88,4.04s12.62-1.35,18.14-4.04c5.51-2.7,9.9-6.33,13.19-10.88,2.42-3.37,3.96-6.96,4.58-10.77.23-1.36.35-2.74.35-4.16v-112.95c0-5.39-1.61-10.37-4.81-14.93ZM382.3,360.31c0,2.35-1.11,4.39-3.32,6.12-2.23,1.73-4.82,2.59-7.78,2.59-2.79,0-5.26-.86-7.4-2.59-2.14-1.72-3.2-3.76-3.2-6.12v-112.95c0-2.35,1.11-4.4,3.32-6.12,2.23-1.73,4.82-2.59,7.78-2.59,2.79,0,5.26.86,7.4,2.59,2.14,1.72,3.2,3.76,3.2,6.12v112.95Z"/>
  <path class="cls-2" d="M238.06,233.04c-3.21-5.42-7.57-9.74-13.08-12.95-5.5-3.2-11.47-4.8-17.88-4.8s-12.62,1.61-18.14,4.8c-5.51,3.21-9.91,7.53-13.2,12.95-3.28,5.43-4.93,11.35-4.93,17.76v139.35h0c13.89,0,25.16-11.26,25.16-25.15v-25.4h21.7v50.56h0c13.89,0,25.16-11.26,25.16-25.16v-114.2c0-6.41-1.61-12.33-4.8-17.76ZM196,314.44s0-63.64,0-63.64c0-2.8,1.11-5.23,3.33-7.27,2.23-2.06,4.82-3.08,7.78-3.08,2.79,0,5.26,1.03,7.39,3.08,2.14,2.05,3.21,4.47,3.21,7.27,0,0,0,63.64,0,63.64h-21.7Z"/>
  <path class="cls-2" d="M155.63,233.04c-3.29-5.42-7.69-9.74-13.19-12.95-2.25-1.31-4.6-2.35-7.04-3.12-3.51-1.12-7.21-1.68-11.1-1.68-6.4,0-12.37,1.61-17.88,4.8-5.51,3.21-9.87,7.53-13.08,12.95-3.2,5.43-4.8,11.35-4.8,17.77v139.35h0c13.89,0,25.16-11.26,25.16-25.16v-28.57c3.51,1.12,7.21,1.68,11.1,1.68,6.4,0,12.37-1.61,17.88-4.8,5.51-3.21,9.87-7.53,13.08-12.95,3.21-5.43,4.81-11.35,4.81-17.77v-51.79c0-6.42-1.65-12.34-4.93-17.77ZM135.4,302.6c0,2.8-1.06,5.23-3.2,7.28-2.14,2.06-4.61,3.08-7.4,3.08-2.96,0-5.55-1.03-7.78-3.08-2.22-2.05-3.32-4.47-3.32-7.28v-51.79c0-2.8,1.06-5.23,3.2-7.28,2.14-2.06,4.61-3.08,7.4-3.08,2.96,0,5.55,1.03,7.78,3.08,2.22,2.05,3.32,4.47,3.32,7.28v51.79Z"/>
  <path class="cls-2" d="M614.89,393.11h.05v-1.61s-.03.01-.05.02v1.59ZM614.89,305.72v10.41s.03.01.05.02v-10.43h-.05Z"/>
  <path class="cls-2" d="M618.34,233.04c-3.21-5.42-7.57-9.74-13.08-12.95-5.5-3.2-11.47-4.8-17.88-4.8s-12.62,1.61-18.14,4.8c-5.51,3.21-9.91,7.53-13.2,12.95-3.28,5.43-4.93,11.35-4.93,17.76v139.35h0c13.89,0,25.16-11.26,25.16-25.15v-25.4h21.7v50.56h0c13.89,0,25.16-11.26,25.16-25.16v-114.2c0-6.41-1.61-12.33-4.8-17.76ZM587.14,314.44c-5.99,0-10.85-4.86-10.85-10.85v-52.79c0-2.8,1.11-5.23,3.33-7.27,2.23-2.06,4.82-3.08,7.78-3.08,2.79,0,5.26,1.03,7.39,3.08,2.14,2.05,3.21,4.47,3.21,7.27v52.79c0,5.99-4.86,10.85-10.85,10.85h0Z"/>
  <path class="cls-1" d="M651.3,393.7s-35.1-65.89,34.79-113.72c55.49-37.98,57.64-64.56,55.79-78.4,0,0,32.63,50.18-12.19,78.56-44.82,28.38-86.87,41.33-78.39,113.56Z"/>
  <path class="cls-1" d="M655.12,373.78c-.09-13.09,4.07-44.85,52.32-69.52,47.23-24.14,42.61-27.59,42.61-27.59,0,0-4.65,27.55-46.22,46.28-28.22,12.71-36.93,24.45-48.72,50.84Z"/>
  <path class="cls-1" d="M659.11,385.02c.24-17.74,13.53-38.97,36.18-49.86,25.75-12.38,48.03-22.25,50.75-29.02,0,0-1.65,29.24-45.59,45.15-27.7,10.03-34.71,24.02-41.33,33.72Z"/>
  <path class="cls-1" d="M663.16,391.51s4.75-20.85,31.96-31.25c26.79-10.24,39.94-18.02,39.94-18.02,0,0-14.29,24.29-41.51,32.5-27.21,8.21-30.4,16.78-30.4,16.78Z"/>
</svg>