<?xml version="1.0" encoding="UTF-8"?>
<svg id="Layer_1" data-name="Layer 1" xmlns="http://www.w3.org/2000/svg" version="1.1" viewBox="0 0 841.89 595.28">
  <defs>
    <style>
      .cls-1 {
        fill: #00b4a1;
      }

      .cls-1, .cls-2 {
        stroke-width: 0px;
      }

      .cls-2 {
        fill: #231f20;
      }
    </style>
  </defs>
  <path class="cls-1" d="M399.48,445.52s-41.55-78,41.18-134.62c65.68-44.96,68.24-76.43,66.04-92.8,0,0,38.63,59.4-14.43,93-53.06,33.59-102.83,48.92-92.79,134.43Z"/>
  <path class="cls-1" d="M404.01,421.94c-.11-15.5,4.81-53.09,61.94-82.3,55.91-28.58,50.44-32.66,50.44-32.66,0,0-5.51,32.61-54.71,54.78-33.4,15.05-43.72,28.94-57.67,60.18Z"/>
  <path class="cls-1" d="M408.72,435.25c.29-21,16.02-46.13,42.83-59.02,30.48-14.66,56.85-26.34,60.07-34.35,0,0-1.96,34.62-53.97,53.45-32.79,11.88-41.09,28.43-48.92,39.92Z"/>
  <path class="cls-1" d="M413.52,442.94s5.62-24.68,37.84-37c31.72-12.13,47.28-21.34,47.28-21.34,0,0-16.92,28.76-49.14,38.47-32.21,9.72-35.98,19.86-35.98,19.86Z"/>
  <path class="cls-2" d="M419.87,175.76c-4.82-7.94-11.26-14.26-19.32-18.97-3.3-1.91-6.74-3.44-10.31-4.57-5.14-1.65-10.56-2.47-16.26-2.47-9.38,0-18.13,2.35-26.18,7.04-8.07,4.7-14.45,11.03-19.15,18.97-4.69,7.95-7.04,16.62-7.04,26.02v204.11h0c20.35,0,36.85-16.5,36.85-36.85v-41.85c5.14,1.65,10.56,2.47,16.26,2.47,9.38,0,18.13-2.35,26.18-7.04,8.07-4.7,14.45-11.03,19.15-18.97,4.69-7.95,7.05-16.62,7.05-26.02v-75.86c0-9.4-2.41-18.07-7.23-26.02ZM390.24,277.63c0,4.1-1.56,7.66-4.69,10.66-3.13,3.01-6.75,4.52-10.84,4.52-4.34,0-8.13-1.5-11.39-4.52-3.25-3-4.86-6.55-4.86-10.66v-75.86c0-4.1,1.56-7.66,4.69-10.66,3.14-3.01,6.75-4.52,10.84-4.52,4.34,0,8.13,1.5,11.39,4.52,3.25,3,4.86,6.55,4.86,10.66v75.86Z"/>
</svg>