<?xml version="1.0" encoding="utf-8"?>
<!-- Generator: Adobe Illustrator 25.0.0, SVG Export Plug-In . SVG Version: 6.00 Build 0)  -->
<svg version="1.1" id="Capa_1" xmlns="http://www.w3.org/2000/svg" xmlns:xlink="http://www.w3.org/1999/xlink" x="0px" y="0px"
	 viewBox="0 0 2339.7 979.5" style="enable-background:new 0 0 2339.7 979.5;" xml:space="preserve">
<style type="text/css">
	.st0{fill:none;stroke:#828282;stroke-width:2.8346;stroke-miterlimit:11.3386;}
	.st1{fill:none;stroke:#AAD4FF;stroke-width:2.8346;stroke-miterlimit:11.3386;}
	.st2{fill:#9DBD7E;}
	.st3{fill:#AAD4FF;}
	.st4{fill:#1D1D1B;}
	.st5{fill:#FFFFFF;stroke:#000000;stroke-width:2;stroke-miterlimit:10;}
</style>
<path class="st0" d="M1236.4,244.9l-13.8-18.3l-33.9-46.7l-9.2-12.6l-14.1-19.2l-49.7-68.7l-55.4-76.2"/>
<path class="st0" d="M1121.6,331.3l-59.8-83.2l-101-140.6l-12.7-17.7"/>
<polyline class="st0" points="820.4,899.9 875.9,882.6 882.3,880.5 984.4,846.9 1005.5,839.9 "/>
<line class="st0" x1="1060.3" y1="3.1" x2="1058.6" y2="0.5"/>
<polyline class="st0" points="820.4,572.3 821.8,573.9 832.9,586.7 "/>
<line class="st0" x1="839.9" y1="323.3" x2="820.4" y2="300.5"/>
<path class="st0" d="M1026.8,406.6l-66.9-83.9L836.7,168.3"/>
<path class="st0" d="M1064.9,376.9l76.2,134.4l4.1,7.7l2,3.7l28.1,52"/>
<path class="st0" d="M1464.2,365.1l-4.9-5.5l-6.3-7.6l-3.6-6.9l-2.4-7.9l-1.9-9.2l-0.9-6.7l-0.7-12l-0.2-12.6l-0.7-15l-1.2-22.6"/>
<path class="st1" d="M-24890.2,16952.1l70.7,14.5l16.3,1.9l18.3-2l47.9-18.5l14.6-0.5l13.5,18.1l5.8,30.6l-2,12.1l-10.9,38.3
	l2.6,16.5l11.6,53.8l24.2,86.6l12.6,11.9l22.7,11.1l78.5,11.7l60.8-2.6l47.6,9.1l26.6,7.2l29.7,15.1l54.5,40.6l23.1,27.3l7.1,21.9
	l-3.1,16.5l-7.8,16.5l-20.6,42.3l-9.2,16l-43.2,80.2l-6.6,17l1.3,22.2l14.3,39.5l12.5,20.1l7.1,14.5l6,16.7l9.8,48l0.8,40.2l-5.8,32
	l-10.1,30.4l-7.3,22l-11.9,26.1l-23.5,39.8l-27.6,22.8l-25.1,12.2l-88.5,28.9l-19.1,8.6l-12.6,13.5l-4.1,11.2l-4.4,30.6l-2.7,36
	l-6,26l-9,18.7l-57.3,95.9l-27.4,33.1l-12.6,15.5l-19,19.7l-25.3,14.8l-54.2,16.2l-26.1,4.2l-38.7,8.4l-60.6,12.7l-21.1,2.1
	l-14.8,2.8l-38,13.4l-42.2,21.8l-40.8,28.2l-50,29.6l-53.5,34.5l-26,19.7l-23.2,27.5l-39.3,62l-40.7,75.4l-21.8,32.4l-13.3,40.2
	l-9.1,20.4l-8.4,56.4l-0.7,16.9l-2.1,26.1l-3.4,12.1l31.9,20l-11.1,44.5l-30,42.6l-21.7,18.6l-73.9-2.5l-28.6,41.6l-74.3,108
	l-14,22.9l-58.2,95.3l-20.7,27.9l-62.7,84.4l-112.1,136.8l-47.8,41l-44.4,30.9l-4.9,2.8l-11.7,6.7l-22,4.2l-30.2-5.7l-17-2.8
	l-20.4,6.7l-13.4,14.1l-83.9,100.3l-14.3,20.7l-86.5,168.5l-32.6,44.3l-116.9,169.8l-70.8,79.7l-321.6,276.1l-11.3,8.6l-18.2,8.8
	l-114.9,39l-198.1,48l-33.3,1l-32.3-7l-79.1-24.4l-110.9-47.5l-19-16.5l-40.9-46.6l-24.5-27.9l-16.2-19l-18.3-24.3l-9.4-23.8
	l-26.8-51.9l-58-100.1l-53.9-52.8l-37.5-18.4l-27.8-4.7l-28.3,2.8l-39.3,17.9l-42.1,29.9l-53.5,43.9l-17.3,8.6l-19.6,0.2
	l-186.4-32.2l-45-14.7l-79.9-15.6l-113.4-0.6l-90.8,12.2l-109.3,10.3l-36,2.3l-21.8-5.7l-13.9-15.8l-8.7-24.3l-14.9-40.6l-24.9-60.9
	l-24.1-44.2l-24-20l-62.4-20.6l-60.2-2.5l-75.3,3l-67.3,11l-51,24l-53,43.7l-43,50.4l-43.6,55l-22.4,16.5l-77.8,36l-173.6,43.2
	l-167.5,5.9l-148.4-3.9l-63.6-0.9l-71.9,5.6l-62.7,7l-78.9,14.1l-46.5,16.2l-48.6,22.6l-21.1,15.5l-51.4,36.6l-82.3,43.7l-62,23.3
	l-45,23.2l-49.2,35.9l-246.4,176.9l-227.8,150.7l-175.2,119.8l-71,57.1l-34.4,32.4l-35.2,35.9l-37.2,50.7l-72.3,120.5l-61.1,106.4
	l-72.3,129.6l-22.5,33.1l-22.5,30.3l-29.5,35.9l-23.9,25.4l-29.5,28.9l-71,65.5l-61.9,57.1l-77.4,74.2l-19.9,16.8l-24.3,20.8
	l-28.8,22.7l-44,23.6l-30.5,20.1l-32.4,13.4l-28.2,12l-39.4,14.8l-23.9,18.3l-17.6,19.7l-14.8,19.7l-14.7,25.4l-27.3,56.4
	l-15.4,37.3l-26.7,38l-35.2,29.6l-30.3,19.7l-39.4,13.4l-41.5,9.9l-38.7-2.8l-25.4-4.2h-19.7l-21.8,3.5l-43.6,11.3l-36.6,18.3
	l-30.2,25.4l-36.6,29.6l-59.8,35.9l-61.2,40.2l-45.7,30.3l-47.8,38l-27.4,20.4l-40.1,25.4l-38,26.1l-33.8,27.5l-23.9,21.1l-30.9,24
	l-28.8,29.6l-25.3,27.5l-26,34.5l-14.7,23.2l-18.9,40.8l-17.5,28.2l-16.8,33.1l-12.6,22.6l-16.1,31.7l-23.2,28.9l-23.2,24.6
	l-28.8,17.6l-28.8,14.8l-42.9,24l-31.7,9.9l-35.2,16.2l-29.5,21.8l-26,24.6l-20.4,28.2l-12.6,30.3l-12.6,35.2l-7,39.4l-3.4,33.1
	l-4.9,29.6l-7,31l-16.8,42.3l-31.6,59.9l-16.1,40.2l-11.2,29.6l-8.4,33.1l-7.6,43l-28.6,120.5l-19.6,57.8l-27.3,54.2l-34.4,52.8
	l-47.7,60.6l-42.9,38.7l-40.1,28.2l-28.8,21.8l-99.2,64.8l-33.7,28.2l-16.5,16.6l-12.6,14.1l-8.8,12l-8.4,22.2l-1.7,17.3l1.8,21.8
	l7.1,25l9.2,19.7l14.5,19.4l16.6,13.7l24.3,16.9l32.5,27.1l20.8,17.3l24.7,26.1l10.6,19l5.7,20.4l9.9,30.3l2.2,42.3l-7.6,49.3
	l-14,36.6l-18.2,26.8l-33,36.6l-33.7,32.4l-33.7,20.4l-45,20.4l-49.1,16.1l-99.4,31.1l-51.4,20.4l-36.6,18.3l-26.7,14.8l-23.2,16.2
	l-33.1,14.1l-19,6.4l-26,9.2l-30.3-1.4l-43.7-11.3l-38.1-14.8l-31.7-16.9l-41.6-29.6l-14.1-17.6l-18.7-13l-23.6-5.3l-29.9,2.5
	l-33.4,7.8l-14.4,5.3l-31.3,15.5l-21.8,22.5l-18.9,29.6l-15.4,21.8l-10.5,15.5l-6.8,15.5l-19.1,48.6l-18.9,40.2l-21,31.7l-37.2,47.2
	l-55.5,58.5l-37.2,33.8l-31.6,25.4l-28.1,14.1l-25.3,9.2l-23.1,6.2l-15.7,4.2l-9.3,4.2l-10.2,8.3l-8.1,11.6l-6.3,10.9l-10.9,22.9
	l-4.5,18.7l-2.6,17.3l-2.7,29.6l-7,31.7l-9.1,31.7l-21,46.5l-20.3,34.5l-40.7,61.3l-19,22.5l-15.5,16.2l-23.9,16.2l-20.4,12
	l-31.7,14.8l-17.6,7.7l-17.6,9.2l-16.2,14.8l-12.6,22.5l-5.6,14.1l-12.5,45.8l-11.9,42.3l-6.9,46.5l-3.4,32.4l1.5,30.3l7.8,26.1
	l1.5,21.8l-3.5,24.7l-14,30.3l-30.1,54.9l-19,20.4l-17.6,15.5l-29.6,11.3l-25.3,7l-31,4.9l-52.1,5.6l-46.4,10.6l-25.3,8.4l-19,7.8
	l-11.2,6.3l-12.6,16.2l-7,14.8l-4.2,23.9l1.5,21.1l6.4,21.8l0.8,29.6l-3.4,31.7l-4.9,9.9l-19,24.6l-29.5,24.6l-42.9,38.7l-21,31.7
	l-5.6,19.7l-9.8,24.6l-15.4,19l-7.7,7l-24.6,33.8l-19.6,28.2l-23.1,70.4l-9.8,26.1l-7.7,21.8l0.1,23.2l2.9,23.9l3.3,65.5l-1.4,11.6
	l-3.7,11.9l-7.8,9.9l-14.4,9.8l-17.6,11.3l-16.9,18l-19,20.8l-16.5,21.5"/>
<path class="st1" d="M-26961.4,4093.8l6.8,51.8l15,42.2l52.8,65l29.2,53.1l17.3,24.5l14.5,48.7l3.7,47.2l60.8,55.7l83.8,64
	l61.5,46.3l55.3,84.2l38.7,104.5l12.7,94.6l-5.6,64l-18.6,49.4l6.3,44.7l23.5,43.7l54.2,83.2l90.7,128.9l102.1,79l33.8,28.6
	l97.4,68.6l50.5,27l50.5,14l44.2,22.9l43.3,60.8l48.5,61.4l56.2,39.5l125.8,16.1l40.1,12.5l27.6,23.9l19.8,25.5l27.6,21.8l50.5,32.8
	l84.8,49.4l66.1,51.5l77,47.8l53.6,16.6l55.7,6.7l51.2,24.4l50,36.7l46.8,52.9l47.4,70l12.6,49l6.5,42.8l38.7,50.7l53.4,35.8
	l49.7,13.5l85.7-18l59.8-18.1l69.9,1.9l56.5,27.5l76.9,68.8l48.6,66.6l60,121.9l71.4,198.6l21.6,85.8l-34.8,102.7l-33.7,97
	l-69.9,56.4l-110.5,67.7l-62,57.6l-77.6,116.2l-61.8,169.3l-25.8,86.9l30.6,59.8l-2,117.3l12.6,118.5l-45,72.2l-61.9,74.5l-33.6,114
	l-76.6,73.3l-75.4,80l-19.2,20.4l-68.6,111.7l-46.1,104.9l-32.6,81.2l-32.5,134.3l-23.4,136.5l-3.3,77.9l-17.9,109.2l9.3,69.8
	l23.4,63.5l12.1,49.4l5,51.5l-31.1,66.1l-64.5,96.1l10.7,50.8l55.4,109.3l64.5,112.8l91.6,107.2l98.8,34.8l135.9-66.5l84.8,6.5
	l79.9,62.7l26.3,80.7l-45.8,54.2l11.9,95.7l64.8,136.4l49,84.8l34.9,23.5l-25.1,98.6l16.3,83.5l56.4,83l78.1,159.3l23.1,22.8
	l95.1,87.6l58,17l64.3,55.5l23.4,64.7l-34.5,56.1l-12.9,29.3l-2.3,18.9l4.2,17.9l5,14.7l23.3,38.6l24.5,106.2l19.1,46.3l10.1,60.3
	l-14.9,124.2l-16.7,48.2l-23.7,65.1l-20.5,33.1l-21.5,21.2l-27.8,19.4l-309.8,102.4l-59.4,29.1l-91.5,3.5l-51.2-24.2l-52.8-32.7
	l-94-28.2l-57-16l-68.9-14.2l-13.2-4.1l-53.2-60.9l-48.4-68.4l-24.6-25.5l-68.1-62l-69.7-51.4l-22-11.3l-93.6-38.6l-108.3-16.9
	l-53.6,11.2l-55.2,25.8l-43.5,30.9l-35.4,43.8l-28.1,45.8l-14.9,36.3l-43.7,144.7l-40.3,137.5l-15.9,32.1l-52.1,59.3l-58.5,47.7
	l-39.6,20.4l-114.2,43.7l-56.1,34.2l-86,80.3l-42.4,62.1l-81.3,103l-204.5,193.7l-141.7,114.8l-36,38.4l-27,48.6l-26.4,68.4
	l-3.1,160.5l10.6,88.1l10,90.7l61.4,90.9l30.7,85.2l30.7,110.6l85,150.6l44.3,90.4l36.4,95l39.4,61.7l52.4,95.9l46.8,93.1l59.4,52.2
	l53.1,38.5l68.9,48.1l68.5,40l52.5,90.1l60.8,84.6l35.3,93.6l21.3,101.2l13.1,119.9l9.2,73.6l26.3,91.9l54.2,149.1l85.9,141.9
	l68.7,92.2l29.1,61.7l6.8,33.3l-3.5,82.4l-20.4,102.9l-45.6,105.4l-57,131.2l-16.8,26.1l-16.3,42.7l-11.1,32.3l-13.3,40.3l-5.4,44.7
	l1.1,46.6l10.8,34.2l27.6,52l19.8,80.5l6.1,43.9l-0.5,107.4l8.3,40.3l17.7,49.3l13.2,74l7.3,29.8l26.7,73.2l11.9,28.8l19,26.5
	l68.4,60.5l70.8,47l60.3,27.9l36.3,12.3l40,9l73.1,1.1l32,8.2l33.2,6.7l47.6,6.3l73.6,6.4l98,11l82.9,10.4l88.3,15.5"/>
<path class="st0" d="M1238.7,728.4l-12.2,4.4l-223,71.3l-8.2,2.3"/>
<line class="st0" x1="864.8" y1="710" x2="820.4" y2="644.4"/>
<polyline class="st0" points="1614.8,551.1 1490.4,584.4 1371.1,616.3 1352.2,620.9 "/>
<polygon class="st2" points="1041.4,0.5 999.1,33.2 941.1,80.1 937.9,82.7 905.5,106.5 828.7,157.5 820.4,162.4 820.4,122.8 
	858.9,97.5 888.8,74.5 950.3,23.4 975.6,0.5 1015.8,0.5 "/>
<path class="st1" d="M-26994.5,3851.8l-5.8,27.4l1.6,31.4l-7.4,35.3l7,50.2l18.7,69l19,28.7"/>
<path class="st0" d="M1494.4,386.3l-14.7,25.7l-108.9,185.2l-2.3,4l-16.2,19.6"/>
<path class="st1" d="M-36206.9,26825.3l-16.1,35.9l-11.2,23.9l-7.7,21.8l-10.5,23.9l-3.5,20.4l-5.6,22.5l-7,20.4l-21,31l-28.8,26.8
	l-17.6,13.4l-24.6,15.5l-50.6,33.8l-34.4,32.4l-14.7,26.1l-25.9,45.1l-17.5,26.1l-25.3,30.3l-23.2,31.7l-15.4,21.1l-49.2,49.3
	l-25.9,39.4l-28.8,41.5l-61.8,68.3l-19,21.1l-28.8,26.8l-22.5,19l-35.1,26.8l-23.2,18.3l-21.8,19.7l-24.6,26.8l-16.8,29.6l-2.8,18.3
	l-2.7,35.9l0.1,23.9l-5.6,19l-10.5,21.1l-12.7,12l-33.6,33l-36.6,20.4l-35.2,14.8l-34.5,7l-31,3.5l-60.5,14.1l-33,19l-36.6,24.6
	l-33,30.3l-26,31l-13.3,26.1l-18.9,36.6l-6.9,39.4l-4.8,53.5l-2.8,21.1l-6.3,23.2l-10.5,19l-16.1,17.6l-28.1,27.5l-21.8,18.3
	l-20.4,16.9l-25.3,24.6l-17.6,14.8l-19,17.6l-13.4,12l-22.5,25.4l-19.6,29.6l-4.9,19l-7.7,23.9l-2.1,10.6l-11.2,22.5l-22.5,23.2
	l-28.1,23.2l-28.8,16.9l-21.8,16.2l-19.7,14.8l-28.8,30.3l-29.5,40.1l-12.6,16.9l-46.4,39.4l-35.1,32.4l-26.7,24.6l-23.2,25.4
	l-14,25.3l-11.9,29.6l-8.4,27.5l-9,35.9l-16.8,48.6l-14.7,26.8l-7.7,19.7l-16.8,33.8l-14,21.8l-23.9,32.4l-24.6,25.3l-29.5,21.8
	l-35.8,22.5l-39.3,30.3l-23.9,12.7l-16.2,10.6l-25.3,19l-25.3,21.1l-28.1,32.4l-14,31.7l-23.1,52.1l-23.1,47.9l-24.2,63.4
	l-29.6,61.9l-14.1,17.3l-15.2,27.9l-26.5,34.8l-26.8,27.2l-25.3,19.7l-16.8,18.5l-25.8,30.2l-22.3,20.9l-26.7,37.8l-32.5,35.8"/>
<path class="st1" d="M-40008.3,32392l19.1,33.1l6.4,19.7l3.6,30.3l2.9,33.1l0.8,16.2l-4.9,22.5l-4.2,18.3l-8.4,16.9l-18.2,20.4
	l-28.1,12.7l-37.3,5.6h-12.7l-19.7,2.1l-20.4-7l-25.4-4.9l-20.4-2.1l-28.8,2.8l-31.6,16.2l-11.9,12l-28.8,18.7l-16.1,12.3
	l-14.4,12.3l-13.3,14.1l-5.6,13.7l-3.8,16.9l0.1,22.5l2.1,12l3.2,12l8.5,35.6l12.5,44.7l7.8,23.9l11.3,17.6l9.9,12.7l14.1,18.3
	l18.4,23.9l14.8,20.4l6.4,14.8l2.1,11.3l-1.4,13.4l-4.9,11.3l-14,17.6l-28.8,16.9l-19.7,3.5l-11.2,8.4l-8.4,9.1l-4.9,12.7l-5.6,22.5
	l-4.9,16.9l-13.3,29.6l-20.3,27.5l-14.7,22.5l-14.7,21.8l-12.6,28.2l-21.7,26.7l-40,31.7l-51.3,35.9l-34.4,27.5l-24.6,22.5
	l-29.5,29.6l-21,31.7l-16.8,22.5l-36.5,45.8l-16.1,25.3l-32.2,58.4l-16.1,26l-12.6,28.9l-13.9,46.5l-15.4,38.7l-11.9,36.6
	l-10.5,28.2l-20.3,54.2l-28.6,75.3l-6.9,33.1l-3.4,25.3l-4,62.6l-0.6,27.5l-4.1,32.4l-7.7,26.7l-9.8,31l-20.3,40.8l-10.5,15.5
	l-11.2,11.3l-17.6,12.7l-20.4,19.7l-20.3,20.4l-14,18.3l-14.7,25.3l-20.3,44.3l-44.7,120.4l-35.6,85.2l-27.3,64.1l-44,103.5
	l-58.1,117.6l-25.2,55.6l-34.9,92.9l-55.3,109.8l-24.5,52.1l-17.5,42.9l-8.4,27.4l-38.5,80.9l-45.5,74.6l-14,25.3l-14.7,23.9
	l-14,20.4l-9.8,23.9l-9.1,25.3l-5.6,19.7l-4.8,36.6l-2,26.7l1.5,26.7l5.6,35.9l15.8,57.6l5.7,19l16.9,18.3l14.9,22.5l2.9,22.5
	l1.6,64.7l6.6,97.1l7.2,46.4l3.6,41.5l0.1,28.1l-4.8,33.8l-5.5,43.6l-6.2,27.5l-21,42.9l-13.3,21.8l-11.2,26l-4.2,22.5l-2,30.3
	l4.3,24.6l8.5,19l11.3,23.9l5.7,14.8l2.2,21.8l-6.8,69.7l-6.9,34.5l-11.9,23.6l-8.9,18.3l-12.4,15l-19.1,14.1l-32.3,20.8l-36.2,12.8
	l-19.9,7.4l-9.5,8.6l-25.2,44.2l-17.5,28.9l-3.5,15.5l-1.4,20.4l2.2,16.9l5.6,6.3l7.8,10.6l12,13.4l5.7,14.1l0.8,19l-7.7,21.8
	l-21,47.2l-21,44.3l-10.5,19.7l-10.5,23.9l-23.1,25.3l-14.8,11.2l-22.5,12l-22.5,22.5l-4.2,13.4l0.8,14.8l10.6,16.2l36,41.5
	l24.7,33.8l16.3,23.9l7.8,17.6l12.7,18.3l15.5,12.7l38.8,25.3l38,12l31,12.7l36.6,8.4l33.8,8.4l35.9,7l21.9,12.7l16.2,21.8
	l20.5,33.1l10.6,18.3l16.3,31l11.4,33.8l9.9,25.3l8.5,24.6l-2,21.8l-6.2,35.2l-14.6,59.1l-38.4,106.3l-39.2,59.1l-20.3,20.4
	l-26.7,19l-14.1,6.3l-19,7l-21.8,9.2l-11.9,14.8l-5.5,29.5l0.1,28.8l1.5,26l1.5,18.3l-4.1,25.3l-8.4,16.2l-3.5,9.8l-1.3,23.2l7.1,19
	l7.8,20.4l7.8,19l5,16.2l3.6,33.1l-0.6,31l-6.2,24.6l-14,16.9l-16.1,13.4l-18.3,12l-15.4,13.4l-17.6,13.4l-16.1,12.7l-11.2,13.4
	l-24.5,31"/>
<path d="M1163.7,514.2l23,29.4l-12.1,9.6l4.4,8.1l76.3-24.7l-8.2-26.8l42.6-11.8l-9-26.7l6.3-6.6l-30.1-34.4l-89.7,74l3.4,3.8
	L1163.7,514.2z"/>
<path class="st3" d="M-19454.6-1002.1l-15.9,3.5l-16.8,4.4l-14.6,4.4l-19.8,5.8l-15,6l-15.3,4.6l-12,1.4l-5.8,1.4l-14.3,4.4
	l-18.7,5.8l-7.2,2.3l-14.3,1.2l-9.5,1.8l-14.6,2.6l-10,1.6l-16.2,2.8l-9,1.1l-11.1,1.8l-8.3,1.6l-21,4.4l-20.5,3.2l-19.6,1.9
	l-17.5,5.5l-16.6,2.3l-27.7,3.7l-13.4,0.5l-21.3,3l-15.9,3l-7.6,0.7l-9.7,2.8l-17.8,3.7l-20.5,3.9l-20.5,2.8l-16.1,0.5h-16.8
	l-12.5,0.5l-29.1-0.7l-14.8-0.2l-20.6-3.5l-7.6-0.7l-10.2-2.8l-21.4-2.3l-15.3-3l-10.9-2.3l-17.1-4.6l-20.5-4.2l-11.3-5.1l-18-5.6
	l-15.9-4.9l-19.2-4.9l-12.2-5.5l-16.8-6.4l-15.4-6.4l-8.8-5.7l-15.2-7.4l-18.2-11.5l-11.3-7.4l-14.1-8.1l-13.6-5.3l-18.4-8.3
	l-13.1-3.2l-15.7-2.1l-13.2-1.9l-14.5-0.7l-16.4-2.8l-17.6-3.4l-18-4.4l-20.6-5.5l-28.6-6.2l-36.7-9.3l-18.3-3l-17.6-1.8l-14.6-2.6
	l-22.1-2.5l-28.9,1.4l-16.9,3.3l-28,3.2l-18.5,4.2l-30.7,4.2l-20.1,2.1l-34,5.1l-25.6,4.9l-26.6,5.5l-23.5,2.6l-23.6,5.5l-20.1,7
	l-16.4,6.7l-18.2,7.1l-20.1,4.6l-15,2.6l-24.3,1.7l-22.4,0.5l-19.4-1.4l-27.3-0.9l-36.7-3.2l-30.7-1.6l-21.7-3.2l-24-4.1l-35.6-6.5
	l-22.6-4.1l-19.1-3l-25.6-4.1l-26.5-4.6l-34.4-1.4l-17.5,0.5l-13.2-0.7h-42.7l-23.8,1.4l-32.8,3l-20.6,1.1l-10.6,1.6l-16.2,1.2
	l-17.8,3.9l-13.8,1.1l-15.2-1.4l-15-2.8l-23.5-7.8l-16.2-7.2l-13.1-5.1l-13.1-4.6l-11.8-4.8l-8.7-4.9l-12.5-7.4l-13.1-6.9l-9.2-5.5
	l-10.2-8.3l-10.4-6.2l-8.5-5.1l-18.9-11.5l-17.1-12l-8.1-5.8l-9.9-6.9l-6-4.2l-8.8-6.7l-6.2-5.5l-6.2-6.5l-12-12.2l-10.9-7.4
	l-14.1-5.1l-9.5-1.2l-7.4-4.4l-12-5.8l-14.5-2.3l-25.4-1.9l-5.8,1.4l-6.7-0.2l-11.8,2.3h-10.2l-12.4-1.1l-12.5-1.9l-9.4-1.2
	l-21.7-3.5l-20.1-4.4l-19.6-4.2l-20.3-4.8l-17.8-3.4l-16.4-3.9l-25.2-6.2l-18.5-4.1l-17.5-5.1l-15.7-4.4l-19.1-5.5l-11.3-1.6
	l-19.6-2.6l-16.9,1.2l-17.6-2.3l-22.4-3l-24.2-1.4l-15-1.1l-17.8-0.9l-26.5,0.5l-19.1,2.1l-16.4,3.2l-19.9,2.6l-19.2,4.2l-23.1,6.4
	l-13.2,3.2l-10.9,3.9l-20.6,12l-13.4,4.9l-15.7,4.6l-17.5,7.6l-21,10.8l-12.3,11.5l-15.3,10.2l-16.6,9.5l-14.1,13.9l-10.7,7.9
	l-14.6,10.8l-16.8,6.4l-15.9,3.5l-24.2,2.6h-13.6l-23.6,0.5l-19.4,1.6l-18.9-2.8l-15,2.1l-16.1,5.8l-11.8,5.6l-22.9,11.8l-14.6,4.9
	l-13.2,7.2l-20.8,5.5l-14.5,4.6l-23.1,5.6l-25.4,2.6l-30.5,3.2l-32.6,0.4l-19.2-2.1l-23.3-4.6l-15.4-4.8l-14.8-1.2l-19.8,3l-8.1,1.6
	l-14.8,2.1l-13.9,2.1l-9.2,3.5l-8.6,7.6l-15.1,11.3l-11.6,10.2l-21,21.7l-12.9,14.1l-18.5,21.9l-10.2,12.9l-10.6,16.6l-11.6,22.9
	l-11.6,12.5l-12.7,10.6l-10.7,5.8l-10.8,2.8l-10.8,0.5l-43.3,11.2l-13.9,15.9l-4.4,17.2l0.4,18.8l5.1,26.9l10.2,18.2l13.9,13.4
	l19.3,8.6l22.5,6.4l65.8-8.8l16.8,1.8l8.9,7.9l0.4,12.2l-6.6,9l-38,24.8l-12.9,6.1l-16.7,0.3l-83.6-13l-109.3-7.1l-23.6-0.5
	l-22.9,3.8l-32.4,12l-23.6,13l-9.7,9.6l-10.7,23.5l-5.4,30.9l-0.2,31.8l3.1,32.6l5.2,37.6l7.8,25.2l39.6,81l51,109.5l-2.1,76.8
	l-57.4,81.3l-14.4,132.1l-23.6,84.7l-53.9,151.3l-38.2,100.5l-83.4,111.8l-59.7,82.4l-29.2,65.5l-46.1,96l-64.4-7.9l-83.6-47.4
	l-172.8-30.5l-97.1-18.1l-75.7-13.6l-59.8,31.6l-38.3,57.6l-4.4,64.3l-12.3,54.2l-53,37.3l-89.2,20.3l-102.8-15.8l-115.2-9
	l-92.5,24.8l-18.3,42.5l-0.9,72.7l11.7,88l-30.7,10.7l-24.6,8.5l-45.2-26l-142.3-20.3l-73.3,45.2l4.6,57.6l17,28.2l-9,13.6
	l-23.7,10.1l-14.4,15.4l-94,7.2l-62.1,7.9l-39.5,23.7l-81.2,41.8l-78.9,84.7l-46.2,26l-55.3-15.8l-75.7-47.4l-58.7-4.5l-48.5,24.8
	l-12.3,47.4l-18,47.4l-48.5,33.9l-72.2,22.6l-60.5,83.1l9.2,101.6l68,137.7l19.7,45l-9.2,33.4l-50.9,48.1l-49.6,48.5l-48.5,37.3
	l-45,64.3l-16.8,53l-2.1,54.2l-29.3,47.4l-56.4,42.9l-60.9,47.4l-71,56.4l-56.4,26l-67.7,28.2l-20.1,31.3l-1,31.1l4.4,27.9
	l11.4,54.2l31.7,58.7l86.6,152.8l54.3,83.5l12.7,34.9l8.5,35.6l5.2,62.3l-1.1,70.9l-4.4,87.6l-5.4,58.2l-11.2,29.3l-25.9,40.6
	l-38.3,39.5l-33.8,27.1l-21.4,33.9l-12.3,38.4l-5.6,28.2l-14.6,40.6l-27,23.7l-39.5,24.8l-36.2,17.6l-32.5,23.8l-51.3,39.9
	l-30.4,20.3l-9.9,21.9l-8.4,24.9l-4,17.6l-4.9,22.2l-9.7,30.9l-8.8,25.1l-12.6,22.4l-5,7.9l-17.6,12.8l-12.6,8.6l-11.3,19.7
	l1.4,17.6l6,29.5l-8.1,41.6l3,24.2l8.3,34.8l9.7,28.8l5.8,28.5l6.3,12.1l20.1,22.5l-8.2-24.8l-2.5-12.7l-14.3-46l-8.1-63.8l3.6-25.1
	l-0.5-42.1l4.6-16.8l5.2-13.6l5.9-13.2l21-21.9l5.5-12.3l18.3-35.8l9.9-20.3l3.4-20.5l-1.8-16.1l2.1-18.2l7.8-15.7l10.9-19.9
	l14.3-13.8l46.5-33.3l65.3-36.4l48.6-24.8l32.7-16.9l27-35l13.7-35.8l5.4-13.9l22.5-44l25.5-3.3l28.7-38.9l33.7-49.2l22.5-38.4
	l16.8-73.4l11.2-67.7l3.3-62.1l-2.4-82.4l6.7-56.4l-5.7-36.1l-11.4-38.4l-33.9-38.4l-30.6-53.1l-61.1-94.8l-15.9-26l-31.2-55.3
	l-27.9-87l-2.8-33.8l36.1-26l69.9-28.2l65.4-31.6l62-60.9l62-54.2l58.6-47.4l18-42.9l4.4-47.4l25.9-51.9l33.8-41.8l56.4-41.8
	l53-48.6l40.7-54.5l19-35.8l-11.4-62.1l-34-56.5l-51-90.3l-0.5-101.2l37.2-44l32.5-25.4l32.8-12.3l59.6-28.6l12.7-45.5l20.2-47.4
	l35-18.1l32.8,26l93.8,44l86.9,2.3l60.9-39.5l58.6-79l74.4-39.5l90.3-29.4l138.8-26l31.5-46.3l-12.5-55.3l15.7-33.9l31.6-10.2
	l107.3,31.6l83.6,29.3l36-10.9l16.9-28.2l14.7-38.8l-15.8-66.6l-8.6-65.3l35.4-16l190.8,5.6l154.6-15.8l86.9-31.6l17.9-88.1
	l6.6-72.2l46.2-48.6l66.6,15.8l124.2,10.2l116.3,10.2l93.8,41.8l53.1,41.8l59.8-11.3l57.5-73.4l36-76.8l61.9-93.7l85.6-121.9
	l25.9-63.2l57.4-119.7l46-138.9l10-108.4l39.3-97.1l46.1-92.6l-11.4-73.4l-54.3-75.6l-48.7-100.5l-6.1-22.7l-7.6-43.9l-5.2-53.2
	l1.6-15.9l7-15.9l5.2-8.4l6.6-7l8.1-3.6l9.5-2.2l16.9-3.4l17,0.8l68.5,12.9l106.2,10.1l80-0.3l12.1-3.8l31.3-23l21.4-26.5l8.5-20.1
	l-2.1-24.4l-8.5-20.1l-13.9-16.5l-18.2-7.9l-57.3,7.8l-4.8-0.3l-19.7,23.1l-11.5,1.8l-7.1-1.4l-9.5-5.3l-9-8.3l-3.9-13.2l-0.9-10.6
	l2.4-6.2l3.3-9.5l3.9-10.1l7.6-8.1l12-9.9l17.3-16.4l8.6-9.2l10.6-15.4l13.7-19.4l12.5-15.4l13.2-20.5l15-18.7l13-15l6.7-9.3
	l43.3-38.8l18-16.2l14.5-7.1l13.9-2.5l29.8-0.9l32.5,5.6l28.8,5.5l17.1,4.1l10.8,3l16.8,1.4l16.2,0.2l18.9-3.5l13.9-3.7l25.9-7.6
	l18.3-7.2l14.6-2.6l15.9-1.4h13.6l13.1,0.7l12.5,0.9l12.7,0.7l23.3-3.4l12-3.7l15.5-4.6l11.3-3.7l22.6-7.8l18.2-5.3l10.6-4.1
	l13.2-3.9l19.6-2.6l10.6-5.6l10.4-5.5l13.2-8.5l17.4-15.5l10.7-9.3l11.8-10.8l6.2-5.5l13.6-9.3l13.1-7.6l10.8-5.7l16.4-8.1l17.1-5.6
	l22.9-9.2l12-4.4l10.6-3l15-8.7l16.2-6.2l18.9-6.7l19.6-4.4l15.7-3.3l16.9-1.4l15-0.3l12.5-0.4l27-1.4l21.2,0.5l14.8,1.8l16.6,1.8
	l16.9,1.8l20.5,1.8l13.2,2.3l11.5,3.5l15.9,5.1l9.7,2.1l8.8,1.2l13.8,2.1l13.8,5.1l14.1,3.9l13.1,3.9l11.5,3.7l21.2,4.2l26,6.7
	l14.5,3.3l16.6,4.2l12.9,2.5l19.2,3.2l12.7,1.8l18.5,1.2l10.2,0.4l12.5-0.7l13.4-0.5l14.1,1.8l14.1,2.3l13.2,4.6l12.3,5.5l7.2,2.6
	l20.6,3.7l10.1,3.9l12.7,5.1l23.1,15.9l23.5,16.4l8.7,6.9l9.2,8.1l13.8,9.2l11.7,8.3l14.3,11.6l13.6,8.8l14.8,8.1l10.9,6.4l11.7,7.6
	l9.4,7.1l12.2,6.7l18.2,9.9l17.1,6.2l27,7.4l16.2,3.7l15.5,5.1l19.4,3.7l10.9,0.2l15.7-2.3l13.6,0.5l11.3,2.1l15.7,3.7l18.7,2.8
	l19.2,0.9l14.8-0.2h10.9l16.2-0.9l13.9-2.3l20.1-2.3l10.2-2.5l12.5-4.4l9-2.6l12.2-2.3l12,0.3l17.7,3l8.8,2.3l14.3-0.4l13.9-1.2
	l9.7-1.2l14.3,1.4l12,4.4l25.6,4.1l35.1,3.7l33.3,1.9l31.2,2.6l42.2,3l30.2,0.3l24.2,0.2l25.6-3.2l32.5-3l28.2-6.1l8.8-1.7l11.3-6
	l6.5-3.4l24.2-7.2l12.7-1.6l25.9-1.9l24.2-3.4l16.8-4.1l30-7.2l21.7-6.4l26.3-6l16-2.5l20.5-1.2l23.6-0.9l30.7-1.4l19.6,2.1
	l18.2,1.6l28.4,5.1l18.9,3.5l9,3.4l12.9,3.7l20.4,4.4l10.1,1.6l11.5,2.3l21,2.8l15.9,3l16.1,4.2l19.6,3l11.5,1.2l17.1,2.3l14.1,3.5
	l12.9,5.7l12.2,6.2l12.4,4.9l9.2,5.5l9.6,8.3l9.2,6.9l17.8,12.3l7.8,5.8l14.5,7l13.1,7.2l8.3,4.1l16.1,6.2l11.3,5.5l13.4,5.5
	l11.5,3.2l8.8,1.9l19.4,3.2l11.8,4.2l12.5,3.9l9.4,2.8l11.5,0.3l6.5-1.2l5.1-2.6l9.3-4.9l8.6-1.9l9.9,1.6l9.9,2.5l14.8,3.2l10.8,1.2
	l15.9,0.5l8.8,0.4l9.2,0.3l12.4,0.2l21.9-0.2h18.4l12.9-1.2l13.4-1.1l12.5-2.1l17.1-3.9l9-2.5l17.3-4.6l14.5-3.7l15-1.2l8.8-0.5
	l13.9-2.1l8.6-2.5l5.5-1.6l9.3-1.8l17.3-1.2l20.6-2.8l13-3.2l11.8-0.3l7.8-1.1l15-1.8l14.8-2.5l19.4-3.4l12-0.3l20.6-5.3l16.8-5.1
	l16.2-3.2l14.8-4.6l22.4-6.9l10.8-3l10.6-1.9l13.1-4.6l12.2-3.4l11.6-3.5l13.8-5.8l5.6-2.5l12.3-2.5l19.2-1.2L-19454.6-1002.1z"/>
<line class="st0" x1="1418.9" y1="0.5" x2="1418.7" y2="0.6"/>
<path class="st0" d="M1621,102l14.1,4.2"/>
<path class="st0" d="M1278.1,823.3l126.2-39.7"/>
<path class="st1" d="M-13576.3-1344.9l-122,46.5l-211,112.9l-93.5,54.6l-27.3,13.4l-36.5,17.8l-32.8,14.5l-19.6,6.4l-15.3,4.4
	l-20.1,6.9l-15.4,2.6l-18.3,1.2l-13.2-0.5l-24.7-2.6l-27.5-5.8l-34.2-7.4l-28.9-6.4l-39.7-1.8l-32.1-1.8l-19.4-3.2l-27.9-6
	l-16.6-5.3l-15.2-7.8l-24.7-11.6l-24-11.3l-48-19.4l-36-17.7l-23-9.2l-26.8-10.6l-28.2-4.2l-14.8-1.1l-28.9-1.8l-34.2-3.5l-22.6-2.5
	l-49.4-5.6l-30-3.9l-31.4-3.9l-22.9-3.5l-20.5-3.9l-33.5-6l-30.7-6.4l-21.9-3.5l-37.1-5.6l-26.5-3.9l-33.5-6l-37-3.5l-38.1-5.3
	l-41.3-2.8h-30l-32.1-1.8l-31,0.3l-33.5,0.4l-24.7,1.8l-29.3,1.4l-55.8,1.1l-44.8,0.7l-40.6,1.8l-50.6-1.1l-32.1,1.2l-18.3,3
	l-24,3.9l-17.3,3.2l-23.1,5.1l-25.6,2.6l-20.5,1.6l-32.3,2.6l-48,2.5l-70.2-0.7l-55.4-0.3l-75.2-1.4l-59.3-1.8h-44.1l-66.3-2.1
	l-73.8-3.5l-39.9-2.8l-30.3,0.4l-34.9,2.5l-26.1,2.1l-30,5.3l-43.4,8.8l-37,9.5l-31,9.2l-34.9,6.7l-44.1,10.2l-39.2,3.9h-27.5
	l-24.4-2.1l-34.2-3.2l-44.1-10.2l-21.9-3.9l-19.4-4.6l-27.5-7.8l-39.9-8.5l-26.8-3.5l-30-4.2l-27.2-3.5l-31.4-1.1l-35.6-3.5
	l-46.2-0.3h-52.6l-55.1-1.4l-41.3,1.4l-41.3-0.4l-55,1.4l-62.8,4.9l-47.4,3.5l-45.3,4.6l-41.6,4.2l-42.3,8.5l-33.2,7.1l-45.5,10.6
	l-52.2,7.6l-36.2,4.9l-9.9-0.9l-10.6-3l-9.2-3.5l-8.1-4.9l-9.3-4.1l-11.8-2.3l-12.2,0.3l-14.8,2.1l-27.5,3.2l-32.8,0.5l-23.7,1.2
	l-18,0.2l-19.9,0.4l-17.8,0.5l-18.3,0.2l-26.6,1.1l-14.3-1.2l-12.2-1.6l-9.2-2.3l-17.1-2.8l-14.1-2.5l-21.4-3.4l-29.1-3.7l-31.6-2.6
	l-30.9-2.8l-25.4-3l-33.5-4.9l-34.2-3.7l-32.8-4.4l-30.7-1.4l-30.4-3l-20.8-1.4l-23.3-3.4l-17.5-0.5l-15.3,2.6l-17.1,4.2l-10,2.5
	l-28.2,6.4l-28.7,8.5l-24.3,7.2l-21.2,7.1l-12.9,4.2l-13.8,3l-17.3,1.1h-9.7l-21.9,2.3l-18,4.1l-33.2,6.5l-22.1,7l-19.7,8.3
	l-18.7,5.8l-21.3,6.4l-13.4,3.7l-36.3,9.2l-21.2,6.9l-28.4,8.1l-29.8,8.6l-26.5,7.2l-23.5,3.7l-27.2,5.3l-21.7,4.2l-17.1,3.9
	l-25,7.1l-41.8,9.9l-39.3,11.6l-35.6,9.3l-32.6,9.9l-23.5,6.7l-54.8,15.9l-80.2,20.8l-25.9,8.1l-21.2,5.8l-19.2,3.7l-11.3,1.1
	l-15,2.6l-18.3,4.2l-24,8.1l-21.7,6.5l-22.7,5.5l-25,7.9l-24.3,6.2l-33.3,6l-52.2,8.5l-40.4,7.2l-37.9,5.3l-32.8,4.1l-32.8,5.2
	l-20.6,3.3l-26.8,7.4l-33,5.1l-29.3,2.3l-27,2.5l-29.1-0.3l-22.4-3.5l-22.2-2.6l-14.6-2.8l-21.9-1.9l-16.2-0.2l-22.8-3.9l-21.2-4.9
	l-21.3-8.3l-25.1-9.2l-27.2-11.1l-27.4-10.6l-25.4-13.6l-19.6-10.6l-23.3-13.6l-18-7.6l-21-7.8l-21-5.1l-14.5-1.4l-40.4-5.1
	l-21.7-4.9l-17.6-3l-78.2-18.3l-25.6-5.1l-32.1-3.7l-51.9-1.1l-27,1.8l-14.5,2.6l-55.4,9.9l-61.2,10.1l-43.4,6.9l-27.3,5.5
	l-32.4,10.9l-38.1,12l-18.5,3.4l-40.2,3.9l-30.3,0.3l-55.1-3.3l-29.1-0.2l-22.2-2.5l-35.1-4.9l-18.9-3.5l-24.2-5.5l-33.7-5.8
	l-33.2-2.5l-38.5-0.5l-32.6,2.1l-55.9,4.9"/>
<polyline class="st0" points="820.4,41.1 825.9,37.2 855.7,16.1 868,7.4 876.8,0.5 "/>
<path class="st2" d="M1126.2,587.2l-14.3-25.7l-2.3-4.2l-57.1,58.2L1126.2,587.2z"/>
<path class="st0" d="M1043,498l-50.9-59.6"/>
<polyline class="st0" points="1344.9,173.3 1338.5,163.3 1305.3,111 1287.8,84.4 1246.8,22.3 1244.2,18.4 1233.6,0.5 "/>
<polyline class="st0" points="820.4,793.2 859.2,776.1 874.3,816.7 876,820.3 878.5,827.2 863.4,832.5 854,835.5 829.7,844.6 
	827,837.9 820.4,826.8 "/>
<path class="st2" d="M928.1,791.4l-13.9-40.7l23.2-12.3l6.2,1.7l13.9,41L928.1,791.4z"/>
<polyline class="st0" points="1614.8,3.8 1604.4,8.6 1600.4,10.2 1536.9,42.3 1483.5,74.7 1469.1,84.4 "/>
<path class="st0" d="M1415.7,279.4l-19.5-26.2l-47.5-73.3"/>
<path class="st0" d="M1610.2,392.4l-11,0.4l-12.2-0.8l-22.1,1.9l-21.4,1.4l-13.5,0l-10.7-1.2l-10.4-2.4l-7.4-2.4l-7.3-3"/>
<path class="st0" d="M1096.5,600.4l78.8-25.8"/>
<polygon points="876.8,935 854.8,942.1 851.7,932.4 841.7,901.5 863.8,894.4 876,932.4 "/>
<polygon points="1589.2,932.4 1538.6,932.4 1534.2,917.4 1580.7,903.7 "/>
<path d="M1476.1,916.9l66.6-18.4l-3.5-12.6l-66.6,18.4L1476.1,916.9z"/>
<path d="M1469.4,890.3l36.2-10.7l-5.4-18.2L1464,872L1469.4,890.3z"/>
<path d="M1546.6,850.1l12.9,41.9l18-5.6l-12.9-41.9L1546.6,850.1z"/>
<polygon points="1616.6,852.5 1614.8,853.1 1587,861.4 1580.2,838.9 1609.8,829.9 1614.8,846.4 "/>
<path d="M978.7,194.3l47.5,66l14.9-10.7l-47.5-66L978.7,194.3z"/>
<polygon points="1426.6,932.4 1396.6,932.4 1424.1,924.1 "/>
<path d="M1357.5,842.6l37.8-10.9l-2.8-9.8l-37.8,10.9L1357.5,842.6z"/>
<path d="M1359.9,822l27.3-8.5l-2-6.2l-4.8,1.5l-1.9-6.1l-22.5,7L1359.9,822z"/>
<path d="M1316.5,712.2l31.9-9.8l-7.5-24.3l-9.8,3l1.3,4.2l-26,8l-5.6-18.3l-22,6.8l10.4,33.7l25.9-8L1316.5,712.2z"/>
<path d="M1251.8,723.1l21-6.9l-9.7-29.6l-21.1,6.9L1251.8,723.1z"/>
<path d="M1288.9,661.8l36.6-11.5l-6.7-21.2l-36.6,11.5L1288.9,661.8z"/>
<path d="M1261.2,533.5l37.9-12.4l-6.2-19l-37.9,12.4L1261.2,533.5z"/>
<path d="M1287.2,575.6l27.7-7.8l-5.5-19.6l-27.7,7.8L1287.2,575.6z"/>
<path d="M1358.1,782.2l23.1-7.3l-6.2-19.7l-23.1,7.3L1358.1,782.2z"/>
<path d="M1500.6,739.7l12.6-3.8l-9.2-30.4l-10.1,3.1l0.5,1.7l-2.6,0.8L1500.6,739.7z"/>
<path d="M1455.7,836l18.2-4.9l-1.6-5.8l11.5-3.1l1.8,6.5l18.7-5l-8.8-32.6l-19.4,5.3l1.3,4.8l-10.4,2.8l-1.3-4.9l-18.5,5L1455.7,836
	z"/>
<path d="M1198.2,735l24.6-8.9l-28.7-79.3l-24.6,8.9L1198.2,735z"/>
<path d="M1249.4,596.3l20.8-8.6l-10.4-25.1l-20.8,8.6L1249.4,596.3z"/>
<path d="M1409.9,703.7l72.7-18l-4.9-19.7l-72.7,18L1409.9,703.7z"/>
<path d="M1423,758.5l26.9-6.8l-1.6-6.5l-13.7,3.5l-2.1-8.2l24.4-6.1l0.7,2.7l9.4-2.4l-5.3-21.2l-47.1,11.9L1423,758.5z"/>
<path d="M1477.9,745.6l12.7-3.6l-8-28.3l-1.9,0.5l-0.6-2l-10.8,3L1477.9,745.6z"/>
<path d="M1539.4,643.3l9.2,29.8l-2.3,0.7l1.5,4.9l11.4-3.5l-10.8-34.7L1539.4,643.3z"/>
<path d="M1576.2,606.4l27.4-7.2l-7.3-27.8l-27.4,7.2L1576.2,606.4z"/>
<path d="M1226.6,604.6l10.3-3.9l-10.9-28.5l-10.3,3.9L1226.6,604.6z"/>
<path d="M1236.6,681.9l11-3.5l-0.6-1.9l15.1-4.8l0.6,1.7l10-3.2l-2.7-8.4l-3.1,1l-1.9-6.1l3.8-1.2l-2.5-7.7l-10.4,3.3l0.4,1.4
	l-16.6,5.3l-0.4-1.3l-9.9,3.1l2.6,8l3.5-1.1l2.1,6.7l-3.4,1.1L1236.6,681.9z"/>
<path d="M1475.9,648.1l11.9-2.8l-9.2-39.1l-11.9,2.8L1475.9,648.1z"/>
<path d="M1506.2,632.9l28.5-7.5l-7.1-26.8l-28.5,7.5L1506.2,632.9z"/>
<path d="M1564.3,640.4l13.5-4.2l-5.7-18l-2.4,0.8l-11-35.2l-14,4.4l8.3,26.6l3.5,0.7L1564.3,640.4z"/>
<path class="st0" d="M1532.8,181.2l7.2,9.8l5.3,7.9l3,6.9l15.1,43.5l14.9,47.7"/>
<path class="st1" d="M-36650.6,28462.6l-26.5,9.7l-59.6,2.6l-27.9-9.5l-22.9-13.7l-24.7-18.3l-32-1.8l-27.4,12.7l-21.8,12.7
	l-23.2,17.6l-17.5,15.5l-14.1,12.7l-9.8,12l-11.9,13.4l-9.8,11.3l-9.1,9.8l-8.4,8.5l-13.4,7.7l-14.1,4.2l-11.2,4.9l-9.8,3.5
	l-28.1,13.4l-12.7,3.5l-13.4,2.1l-14.1,2.1l-21.1,0.7l-14.8,0.7l-22.5,2.1l-15.5,4.2l-15.5,7l-16.9,9.2l-19,14.1l-32.3,36.6
	l-16.1,18.3l-11.2,16.2l-8.4,14.1l-9.8,14.1l-9.1,14.8l-7.7,13.4l-7,9.8l-9.1,9.9l-8.4,9.8l-9.1,8.4l-12,8.4l-16.9,8.5l-14.1,7.7
	l-16.9,7l-15.5,9.8l-66.2,4.9l-16.9,0.7l-25.3,3.5l-13.4,1.4l-18.3,1.4l-19,4.2l-20.4,3.5l-14.1,9.2l-17.6,10.6l-11.2,12l-6.3,13.4
	l-8.4,13.4l-6.3,9.2l-10.5,9.1l-11.9,9.9l-9.1,9.8l-5.6,12l-56.8,66.2l-21.1,15.5l-18.3,12.7l-17.6,19.7l-12.6,17.6l-12.6,11.3
	l-14.7,13.4l-15.4,19l-14,14.8l-11.9,12l-10.5,7.7l-15.4,14.1l-44.9,57.7l-6.3,9.1l-28.8,28.2l-18.2,18.3l-11.9,12.7l-16.2,13.4
	l-17.6,11.3l-14.1,7l-22.5,8.4l-18.3,10.6l-15.5,9.2l-10.5,8.4l-11.2,11.3l-27.4,30.3l-21.7,31.7l-5.6,7.7l-5.6,15.5l-6.3,9.9
	l-2.8,11.3l-8.4,14.1l-6.3,7l-15.4,42.9l-9.1,19l-16.9,19l-12.6,12.7l-9.8,16.9l-15.4,20.4l-16.8,19l-16.9,12.7l-39.3,54.9
	l-4.9,14.1l-10.5,13.4l-9.1,8.4l-13.3,10.6l-9.8,8.4l-8.4,7.8l-7.7,11.3l-8.4,15.5l-4.2,12.7l-5.6,14.1l-5.6,14.1l-2.8,10.6l0,11.3
	l-2,50.6l11.3,29.6l17,33.8l26.8,31l21.2,25.3l11.4,40.8l-5.5,35.2l-16.8,36.6l-23.9,15.5l-36.5,36.6l-19.6,22.5l-26.6,60.5l-9.8,31
	l-7,16.9l-28.1,16.9l-27.6,12.4l-36.4,27.4l-18.6,19.7l-13,13l-17.6,12.3l-12,6.7l-22.1,12.7l-19.3,10.9l-12.7,3.2l-25,4.6h-13.7
	l-32.1-3.9h-17.2l-11.6,3.9l-10.2,8.8l-10.5,7.8l-10.9,7.7l-13,1.1l-12-3.2l-20.4-6.7l-14.1-7.4l-15.5-11.3l-9.2-9.2l-16.9-11.3
	l-19-8.8l-9.2-4.6l-14.8-14.8"/>
<path class="st1" d="M-38666.5,29869.2l-76.6,126.1l-5.4,46.2l-4,26.5l-0.7,21.7l1.8,19.1l-1.1,38.1l2.2,21.1l2.9,41.5l0.1,19.7
	l-7,23.9l-11.2,15.5l-16.2,12.7l-13.4,5.6l-16.9,7l-17.6,14.1l-17.6,16.2l-14.7,14.8l-19.7,16.2l-9.8,12.7l-9.8,17.6l-16.1,26
	l-19.6,23.2l-21.8,15.5l-14.8,3.5l-21.8,0.7h-19.7l-18.3,0.7l-16.9-2.1l-28.9-14.8l-30.3-10.6l-31-8.4l-23.2-0.7l-24.6,5.6
	l-38.7,14.8l-37.9,32.4l-16.8,23.2l-12.6,20.4l-10.5,21.8l-6.3,26.7l0,12l0.7,12l0,16.9l-16.8,23.9l-19,13.4l-53.4,41.5l-21.1,12.7
	l-31.6,16.2l-17.6,5.6l-28.9,7l-27.4,3.5h-14.1l-40.1,2.8l-58.4,4.2l-21.8,4.9l-18.3,9.9l-25.3,14.8l-16.2,13.4l-14,18.3l-14.7,20.4
	l-3.5,19.7l0.7,12.7l5,16.9l12.7,20.4l8.5,21.1l7.8,26.8l-0.6,21.8l-14.7,31.7l-14,21.1l-18.2,26.1l-22.5,18.3l-23.2,23.9
	l-25.3,20.4l-11.2,15.5l-4.8,26.7l2.2,23.2l4.3,21.1l11.4,39.4l10,35.2l2.9,21.1l0.1,24.6l-3.5,21.1l0.1,18.3l2.2,28.2l7.9,48.6
	l10.7,47.2l0.1,22.5l-9.8,31l-6.3,27.5l-11.9,36.6l-25.9,62l-12.6,34.5l-28.7,66.2l-19.6,51.4l-17.5,33.1l-18.2,30.3l-16.1,38
	l-9.8,30.3l-6.3,23.2l-6.9,35.9l-7.6,41.5l-2.8,15.5l-11.9,24.6l-16.1,22.5l-17.5,33.8l-14.7,44.3l-10.4,33.8l1.5,26.7l1.4,12
	l5,22.5l9.9,25.3l17,42.2l31.1,56.3"/>
<path class="st1" d="M-34747.3,27011.2l-8.4,8.5l-13.3,12l-11.9,14.1l-8.4,11.3l-2,28.2l3.6,25.4l5,19l3.6,15.5l0.7,14.8l-3.5,19.7
	l-11.2,16.9l-12,7l-19,4.9l-21.8,4.9l-22.5,3.5l-14.7,20.4l-7.7,7l-19.7,1.4l-14.8-0.7l-19.7,4.9l-11.3,8.4l-5.6,13.4l-5.6,16.9
	l-16.8,32.4l-11.2,19l-23.9,32.4l-9.8,20.4l-6.3,25.3l-4.9,21.1l-4.9,25.4l-1.4,14.8l-3.5,21.1l-8.4,10.6l-13.3,14.8l-106.9,64.1
	l-26,19.7l-60.4,40.8l-19.7,13.4l-20.4,15.5l-14.7,14.1l-20.4,19l-11.9,21.1l-9.8,21.8l-11.2,28.9l-8.4,12.7l-14.1,12l-20.4,7
	l-24.6,9.2l-30.3,3.5"/>
<path class="st1" d="M-49939.2,43066.9l-11.9,19l-19.7,11.2l-28.8,18.3l-28.8,21.8l-24.5,23.2l-13.3,16.9l-11.9,16.2l-16.8,19
	l-14,12.7l-30.9,15.5l-21.1,8.4l-30.2,9.9l-28.1,14.1l-17.5,16.9l-16.1,15.5l-42,44.3l-16.8,16.2l-10.5,16.9l-16.8,16.2l-23.1,20.4
	l-30.1,23.9l-40.1,12l-26.7,4.9l-33,9.1l-37.2,10.5l-26,9.1l-9.8,10.6l-9.8,14.8l-2,18.3l0.8,15.5l-4.9,11.3l-11.9,14.1l-18.2,18.3
	l-9.8,8.4l-23.9,15.5l-19,5.6l-19.7-2.8l-14.8-4.2l-19-4.2l-11.9,2.8l-12.6,9.8l-8.4,12.7l-4.9,16.9l-5.5,20.4l-14,12l-13.3,6.3
	l-23.9,8.4l-22.5,9.8l-52,20.4l-16.8,7l-23.2,4.9l-15.5,4.9l-20.4,9.2l-8.4,7l-10.5,14.8l-2.1,12l4.3,19l1.5,19l-2.8,18.3l-8.4,19
	l-11.9,14.8l-16.1,9.1l-35.8,11.9l-23.2,2.1l-10.5,3.5l-19.6,14.1l-5.6,5.6l-27.4,9.9l-23.9,4.9l-26,13.4l-13.3,11.2l-18.9,22.5
	l-16.8,29.5l-9.8,21.8l-4.2,17.6l-6.3,20.4l-7,19.7l-4.2,16.2l-3.4,32.4l1.5,30.2l-2,19.7l-13.2,38.7l-29.9,83.7l-11.8,38.7
	l-10.5,22.5l-13.3,16.9l-18.2,17.6l-25.3,16.9l-21.1,8.4l-23.9,4.2l-12.7,3.5l-33,13.4l-42.1,28.1l-49,66.8l-14.7,23.2l-13.3,21.8
	l-3.5,14.8l-9,39.4l3.6,23.2l0.8,23.9l1.5,19.7l-12.6,16.2l-16.8,22.5l-25.9,25.3l-21.7,21.8l-25.3,17.6l-23.2,4.9l-29.5-0.7
	l-20.4-6.3l-23.2,12.7l-28.1,21.1l-13.3,14.1l-23.7,45l-9.7,37.3l-4.1,29.5l15.6,42.2l11.3,20.4l13.5,24.6l14.2,27.4l9.2,19.7
	l4.3,26l0.8,35.2l-10.5,21.1l-10.5,9.9l-26.7,19.7l-47.7,19.7l-51.2,23.9l-32.3,17.6l-53.3,27.4l-30.2,20.4l-29.4,30.2l-21.7,25.3
	l-24.5,33.1l-34.3,39.4l-21,26.7l-30.1,28.8l-28,24.6l-39.2,42.9l-12.6,25.3l-16.1,33.8l-20.2,38l-17.5,23.9l-12.6,12.7l-21.7,15.5
	l-18.2,11.2l-21,19l-23.8,30.9l-9.1,20.4l-14.7,27.4l-13.3,12.7l-18.9,13.4l-19.7,6.3l-9.1,6.3l-13.3,10.5l-10.5,12l-12.6,17.6
	l-7,13.4l-4.9,17.6l-4.8,23.9l-3.4,17.6l-4.8,24.6l-5.5,25.3l-0.7,8.4l-14.6,44.8"/>
<path class="st1" d="M-46044.4,40602.6l-20.4,0.7l-35.9-5.6l-26,3.5l-27.4,14.8l-20.4,16.9l-27.4,24.6l-26.6,28.1l-23.2,14.8
	l-52.5,33l-53.4,25.3l-61.8,33.8l-39.3,28.1l-47.7,33.8l-39.3,36.6l-50.5,33.8l-30.8,31l-33.7,31l-47.7,28.1l-62.7,33.1l-51.9,40.1
	l-38.5,43.6l-54.7,64.7l-23.8,26l-20.3,24.6l-20.3,18.3l-30.2,21.1l-42.8,23.2l-18.2,12l-37.2,24.6l-31.6,21.8l-28.1,16.2
	l-24.6,12.7l-38.6,13.4l-30.2,10.6l-10.5,3.5l-16.2,7.7l-7.7,8.4l-11.9,11.3l-20.4,4.9l-26,2.8l-20.4,10.6l-24.6,16.9l-9.1,9.8
	l-9.1,13.4l-25.3,19l-28.1,18.3l-32.3,19l-30.2,17.6l-70.3,28.1l-39.3,12.7l-35.1,12l-28.1,13.4l-37.2,21.8l-36.5,33.1l-7.7,14.8
	l-10.5,22.5l-15.4,36.6l-6.3,18.3l-13.2,37.3l-15.4,24.6l-6.3,11.3l-11.9,16.9l-24.5,35.2l-12.6,19.7l-16.1,22.5l-16.1,28.8
	l-10.5,27.4l-9.8,16.9l-28.8,24.6l-21.7,18.3l-28.8,18.3l-31.6,13.4l-34.5,2.1l-52.8,4.9l-56.2,13.4l-117.3,43.6l-57.6,27.4
	l-38.6,31l-29.5,25.3l-26.6,24.6l-28.8,16.9l-18.2,15.5l-45.7,20.4l-51.2,28.1l-52.6,38l-49.1,31l-66,35.9l-87.8,35.2l-73.8,22.5
	l-54.8,11.2l-12.7,0.7l-15.5-2.1l-18.3-9.9l-21.2-20.4l-12.7-13.4l-17.7-19.7l-19-7.7l-23.9,1.4l-23.9,4.9l-29.5,6.3l-33,10.5
	l-35.1,12.7l-33.7,17.6l-28.1,21.8l-28.7,28.8l-14.7,23.9l-9.8,21.1l-11.9,26l-13.2,30.3l-14,28.8l-11.2,20.4l-20.3,25.3l-19.6,15.5
	l-23.8,19.7l-16.8,7.7l-23.2,2.1l-29.6-1.4l-33.8-12l-22.5-9.8l-21.1-7.7l-36.6-3.5l-58.4,3.5l-54.8,14.8l-40,30.9l-30.1,36.6
	l-18.2,28.1l-18.2,33.1l-17.5,30.9l-8.4,20.4l-2,22.5l-0.6,31l0.1,21.1l-3.5,16.2l-4.1,20.4"/>
<path d="M1173.7,642.3l-6.4,2.5l-3-7.5l-6.1,2.4l-19.3-49l23.3-9.2l7.9,20.1l1.9-0.7l17.9,45.4l-12.7,5L1173.7,642.3z"/>
<polyline class="st0" points="956.1,684.8 940.5,700.9 931.9,707.6 889.9,739.5 858.7,759.1 826.5,776.8 820.4,779.4 "/>
<polygon points="1136.5,932.4 1123.7,932.4 1135.3,928.6 "/>
<path class="st0" d="M1571.9,827.7l-141.8,37.1"/>
<path d="M1022.6,290.3l40.2,54.1l5.9,7.9l28.1-20.9l-46.1-62L1022.6,290.3z"/>
<path class="st0" d="M1543,686.3L1384.8,723"/>
<path class="st0" d="M963.5,468.1l-10.4,18.7l-11.3,13l-7.1,6.2"/>
<path class="st0" d="M880.7,558.9l-28.3,26.8l-16.4-1.9"/>
<path class="st0" d="M1106,344.5l-2,16.1l-24.3,19.2"/>
<path class="st0" d="M1294.1,208.3l-6.6,19.6l-24.3,17.3"/>
<path class="st0" d="M1263.2,245.2l-2.6,1.7l-43.6,27.8"/>
<path class="st0" d="M1051.6,403.2l-25.9,18.3l-16.4,0.6"/>
<path class="st0" d="M1323.4,527.8l-148.1,46.8"/>
<path d="M1020.9,809.2l182.5-59.9l5.1,15.4L1026,824.7L1020.9,809.2z"/>
<path class="st0" d="M1305.3,111l41.1-28.7l1.8-10.3l-4.3-7.8l14.9-11.2l2.5-12.2"/>
<path class="st0" d="M1061.8,248.1l-11.9,9l-80.9,59l-9.1,6.6"/>
<path d="M1097.4,228.6l10.9-7.8l17.1-12.2l42,58.8l0.7,0.9l-28,20l-12.8-17.9l-5.2-7.3l-10-14l-1.6-2.1L1097.4,228.6z"/>
<path d="M1155.6,206.2l23.9-17.5l31.9,43.6l0.9,4.5l-22.5,17.2l-1.3-1.6l-18.7-26.1l-11.4-15.8L1155.6,206.2z"/>
<path d="M1188.5,252.3l-10.7,7.7l-10.4,7.5l-42-58.8l-17.1,12.2l-28.2-39.6l10.1-7.7l17.2-12.9l31,45.4l12.2-7.4l4.9,7.5l14.2,20.1
	L1188.5,252.3z"/>
<path class="st0" d="M1600.4,10.2l-12.9,10.1l-99.6,61.1l-14.7,9.2"/>
<path d="M1084.8,665.3l25.2-11l0-0.1l-19.1-43.6l-25.2,11.1L1084.8,665.3z"/>
<polygon points="1614.8,723.3 1614.8,739.7 1603.7,742.7 1599.5,727.4 "/>
<polygon points="1614.8,677.7 1614.8,695.6 1598,700 1593.7,683.1 "/>
<polygon points="1614.8,584.1 1614.8,606.2 1613.3,606.6 1607.7,586 "/>
<polygon points="1626.5,579.7 1614.8,583.1 1606.6,585.4 1603,572.7 1614.8,569.3 1622.9,567 "/>
<polygon points="1614.8,616.4 1614.8,644.6 1608,646.5 1600.7,620.3 "/>
<line class="st0" x1="1418.7" y1="0.6" x2="1418.6" y2="0.5"/>
<path d="M1562.9,795.3l13.3,7.8l19.6,11.5l2.7,11.6l6.1-1.4l-3.2-13.5l-7.3-4.3l5.5-9.4l-6.5-3.8l2.7-4.5l-11.8-6.9l-3,5.2l-10-5.8
	L1562.9,795.3z"/>
<path d="M1527.9,791.2l4.1,12.9l2.1-0.7l2.1,6.7l-8.1,2.5l2.4,7.5l12.6-4l0.7,2.3l6.2-2l-9.2-29.5L1527.9,791.2z"/>
<polygon points="1614.8,867.9 1614.8,880.4 1600.8,883.9 1597.9,872.8 "/>
<path d="M1584.2,879.9l9.1,28.3l10.2-3.3l-9.1-28.3L1584.2,879.9z"/>
<path d="M1034,576.5l29.7-28.9l-16.4-16.5l-2.2-6.1l-7.1-9l-22.1,20.4l12.7,28.5L1034,576.5z"/>
<path d="M1026.5,312.4l-14.2-19.1l-29.8,22.1l14.2,19.1L1026.5,312.4z"/>
<path d="M924.8,848.9l-14.4-40.7l-34.5,12.2l2.6,6.9l12.1,32.8L924.8,848.9z"/>
<polygon points="1169.4,51.7 1160.2,59 1148.3,68.5 1144.2,63.4 1134.4,71.2 1092.5,18.2 1114.8,0.5 1116.3,-0.7 1117.3,0.5 
	1147.1,38.2 1154.2,32.5 "/>
<path d="M1263.2,377.8l-14.8-43.1l-24.4,8.2l-25.3,8.5l20.1,57L1263.2,377.8z"/>
<path d="M1168.7,330.9l24.9,78.3l-17.1,5.1l-23.7-76.9L1168.7,330.9z"/>
<path d="M1397.4,247l33.2-22.2l-22.4-33.5l-9.7,6.5l-23.5,15.7L1397.4,247z"/>
<path d="M1394.3,662.2l14.2-3.5l-3-12l-5.1-21.3l-14.2,3.4L1394.3,662.2z"/>
<path d="M1441.3,637.8l3,12l16.2-4L1452,612l-16.2,4L1441.3,637.8z"/>
<path d="M1441.3,637.8l-35.8,8.8l3,12l35.7-8.8L1441.3,637.8z"/>
<path d="M1577.3,207.4l11.7-18.5l-18.2-11.4l-11.7,18.5L1577.3,207.4z"/>
<polygon points="1614.8,339 1614.8,360.1 1609.4,340.5 "/>
<polygon points="1623.4,230 1614.8,232.8 1595.1,239.4 1587.4,216.4 1614.8,207.3 1615.7,206.9 "/>
<path class="st0" d="M1578.4,297l8.8,20.8l23.1,74.7"/>
<polyline class="st0" points="1614.8,441.9 1611.6,432.6 1599.3,392.8 1583.6,333.4 1578.3,297 "/>
<polyline class="st0" points="820.4,157.7 823.3,156.1 918.9,90.1 938.4,76.3 1032,0.5 "/>
<path d="M1511.4,705.9l3.2,10.7l3.1-0.9l1.1,3.6l9-2.7l-4.2-14.4L1511.4,705.9z"/>
<path d="M1531.2,702.6l3,9.7l1.8-0.6l2.9,9.3l12.8-3.9l-5.9-19.1L1531.2,702.6z"/>
<path d="M820.8,847.9l3.2,8.5l7.3,19.7l0.2,0.5l33.2-12.4L854,835.5l-24.3,9.1L820.8,847.9z"/>
<path d="M997,727.1l13.3,38.6l95.3-32.9l-13.3-38.6L997,727.1z"/>
<path d="M1008.8,769.6l7,20.8l50-16.8l-7-20.8L1008.8,769.6z"/>
<path d="M1165.5,864.2l13.1,40.6l28-9.4l-12-35l-6-16.7l-15.3,5.4l-10.8,3.9L1165.5,864.2z"/>
<polygon points="1111.6,922.4 1082.5,932.4 1062.4,939.4 1060.2,932.4 1056.3,919.7 1052.6,910.7 1049.3,900.8 1099.8,883.7 
	1102.4,882.9 1107.2,897.2 1103.9,898.3 "/>
<path d="M960.3,915.1L998,903l-6-18.1l-37.4,12L960.3,915.1z"/>
<path d="M1099.8,883.7l-4.3-14.5l-5.8,1.7l-44.7,15.2l4.3,14.7L1099.8,883.7z"/>
<path d="M1099.8,883.7l2.6-0.7l20.4-5.5l-5.7-20l-22.8,7l1.2,4.8L1099.8,883.7z"/>
<path d="M870.8,803.3l19.3-6.9l0.9,2.4l20.3-7.3l-1.8-5.1l12.2-4.4l-8.4-23.3l-11.9,4.3l-2.1-5.7l-19.9,7.2l3.3,9.3l-20,7.2
	L870.8,803.3z"/>
<path d="M948.4,869.3l4.9,15.5l35.3-11.1l-4.9-15.5L948.4,869.3z"/>
<path d="M1111.6,922.4l15-5l-7.1-23.9l-12.2,3.7l-3.4,1.1L1111.6,922.4z"/>
<path d="M936.4,845l33.2-12l3.2-7.4l-9.2-27.8l-6.7-3.6l-32.4,11.3l-5.3,8.9l11,28.2L936.4,845z"/>
<path d="M1122.8,877.4l42.7-13.2l-3-11.2l-2.9-9.3l-3,0.7l-39.5,13L1122.8,877.4z"/>
<path d="M1470.5,153.5l18.1-12.5l-21.2-30.6L1450,122l6.3,9.8l10.3-7.1l7.7,11.1l-10.8,7.5l2.8,4.3L1470.5,153.5z"/>
<path class="st0" d="M1466.2,83.2l57.1,92.7l1.1,3.5l-0.2,4.1l-1.2,3.7L1408,287.3"/>
<path d="M1444.4,187.1l12,18l4.3,6l12.4-9.5l-15.3-23L1444.4,187.1z"/>
<path d="M1356.2,185.4l18.8,28.1l23.5-15.7l-2.9-4.4l-15.3-23.5L1356.2,185.4z"/>
<path d="M1126.8,559.2l7.8,15.3l2.9,5.8l22.5-7.2l2.7-3.4l-12.1-23.1L1126.8,559.2z"/>
<path d="M1106.7,603l3.4,7.9l2.4-1l17.9,42.7l16.4-6.9l-12-28.5l8.6-3.6l-9.3-22.1L1106.7,603z"/>
<path d="M1000.6,689.9l1.3,3.7l17.9-6.4l3.9-1.5l1.8,5l0.3,9.9l-4.4,0.1l-8.8,3l-7.2,5.8l-3.3,4.8l-3,8.8l57.5-20.7l-2.5-7l23.3-8.4
	l-6.1-16.9l-17.4,6.3l-13-35.6l-22.8,8.6l-6.7,2.4l1.5,2.5l-18.8,16l2.3,6.3l-14.9,5.4l4.7,13L1000.6,689.9z"/>
<path d="M1113.3,559l9.6,18.5l11.7-2.9l-7.8-15.3l-4.6-9l-0.4-0.6L1113.3,559z"/>
<path d="M1126.8,559.2l23.8-12.6l-5.3-10.1l-9.6-1.9l-13.8,15.1L1126.8,559.2z"/>
<path d="M990.5,880l-1.9-6.4l-35.3,11.1l1.8,6.7L990.5,880z"/>
<path d="M992,884.9l-1.6-4.8L955,891.5l-1.9,0.6l1.6,4.8L992,884.9z"/>
<path d="M1193.4,910.3l3.4,9.9l25.7-8.9l-3.4-9.9L1193.4,910.3z"/>
<path d="M1243.8,887.8l8.6,23.7l4.1,10l0.9,2.2l16.9-6.1l-12.9-35.5L1243.8,887.8z"/>
<polygon points="1230.3,928.6 1218.1,932.4 1186.5,932.4 1226.7,918.7 "/>
<path d="M1036.2,828.4l5.1,13.4l40.4-13.9l-3.6-12.9L1036.2,828.4z"/>
<path d="M1187.3,812l-8.9,3.2l10.2,28.5l6,16.7l33.8-11.5l-14.5-45l-16.5,4.5L1187.3,812z"/>
<path d="M1144.3,793.8l4.4,13.2l9-3l-4.4-13.2L1144.3,793.8z"/>
<path d="M1084.3,826.6l25.1-8.7l-4.2-12.1l-25.1,8.7L1084.3,826.6z"/>
<path d="M1097,857l21.3-6.4l-7.6-25.4l-27,8.5l-5.2,1.6l9.2,28.9l10.5-3.2L1097,857z"/>
<path d="M1173.3,849.1l-10.7-33.2l-2.9-9.1l-13.9,4.7l10.8,33l3-0.7l2.9,9.3L1173.3,849.1z"/>
<polygon points="827.8,929.6 820.4,932.1 820.4,907.9 "/>
<path d="M1580.6,409.2l3.9,17.7l-4.2,0.3l2.6,12.9l-6,1.4l-0.1,5.4l-27.1,5.2l-6.2-37.2L1580.6,409.2z"/>
<polyline class="st0" points="820.4,43.5 826,39.8 841,29.2 857,17.6 878.2,0.5 "/>
<polyline class="st0" points="824.7,0.5 824.9,6.7 825.9,37.2 826,39.8 "/>
<path class="st0" d="M1323.4,527.8l-36.2-116.6l-6.5-20.1L1241,263.7l-2.2-8.5l-2.4-10.3"/>
<path class="st0" d="M1179.5,167.2l-13.7-4.5l-30.4-41.7l-28.6,20.7l-3.2-3.2"/>
<path class="st0" d="M1103.6,138.4l29.2-20.3L1118,98.9l-2.3-19.6"/>
<polygon points="859.4,374.7 853,381 850.1,378 831.1,396.9 833.2,400.6 823.9,407.9 820.4,404.2 820.4,350.4 823,348 820.8,345.6 
	828.5,339.5 "/>
<path d="M854.1,304.9l36.5,42.5l15.5-13.3l-36.5-42.5L854.1,304.9z"/>
<path class="st0" d="M1362.9,278.8l33.3-25.6"/>
<path d="M920.6,253.2l22.3,29.1l43.8-33.5L965,220.4l-15.7,12l11.1,14.6l-12.5,9.5l-11.7-15.3L920.6,253.2z"/>
<path d="M982.5,315.4l-10,7.3l45.4,61.4l47.3-35l-31.2-42.2l-7.6,5.5l-29.8,22.1L982.5,315.4z"/>
<path d="M859.5,249.4l18.4,22.7l14.2-11.5l-18.4-22.7L859.5,249.4z"/>
<path d="M891.4,164.8l10,13.8l31.2-22.7l-10-13.8L891.4,164.8z"/>
<path d="M949.2,290.1l9.9,13l31.9-24.2l-9.9-13L949.2,290.1z"/>
<path d="M877.5,283.8l13.5,16.6l23.2-18.9l-13.5-16.6L877.5,283.8z"/>
<path d="M930.1,133.8l9.1,11.7l3.8-3l20.9,26.7l-3.7,2.9l9.6,12.3l21.2-16.6l-9.8-12.5l-5.3,4.1l-4.4-5.7l-12-15.3l-4.2-5.4l4.7-3.7
	l-9.2-11.8L930.1,133.8z"/>
<path d="M892.3,213.3l11.6,17.1l14-9.5l-2.4-3.5l27.7-18.7l2.7,4l16.3-11l-12.3-18.2l-15.4,10.4l2.5,3.7l-28.4,19.2l-2.2-3.2
	L892.3,213.3z"/>
<path d="M861.8,180l17.2,25.2l16.8-11.4l-17.2-25.2l-6.5,4.4L861.8,180z"/>
<path d="M1207.1,186.2l23.7,32.1l11.8-8.7l-2.3-3.2l10.4-7.7l-16.2-21.3l-5.6-7.4l-5.2,4L1207.1,186.2z"/>
<path d="M1268.8,156.8l1.8,2.6l7.1,10l6.3,8.8l29.3-21l-24.6-36.5l-22.3,14.6l10.6,15.6L1268.8,156.8z"/>
<path d="M1138.5,206l12.2-7.4l19.4-12.2l-41-57.2l-30.2,18.8l8.5,12.5L1138.5,206z"/>
<path d="M1042.3,200.9l17.6,24.6l28.6-20.5l-17.6-24.6L1042.3,200.9z"/>
<path class="st0" d="M1244.2,18.4l-49.7,32.9l-1.3,11.6L1224,109l-58.7,39"/>
<path d="M1060.4,230.6l24.8,34.8l25.5-18.2l-13.2-18.5l-11.6-16.2L1060.4,230.6z"/>
<path d="M1085.1,269.3l10.4,14l4.1-3.1l5.6,7.5l-4.1,3.1l12.7,17.2l26.4-19.7l-12.8-17.9l-10.7,7.9l-5.3-7.2l10.8-8l-10-14
	L1085.1,269.3z"/>
<path d="M1084.5,119.5l11.1,15.2l25.5-18.7l-11.1-15.2L1084.5,119.5z"/>
<path d="M1030.8,64.1l35,48.4l26.4-19.1l-35-48.4L1030.8,64.1z"/>
<path d="M1147.7,106.2l21.9,32.1l46-31.3l-19.8-29l-4.1,2.3l-12.3,8.7l-4.5-6.4l-6,4.2l-1.8-2.5l-18,12.3l4,5.9L1147.7,106.2z"/>
<path d="M1008.4,151l11.9,15.6l12.8-9.8l-11.9-15.6L1008.4,151z"/>
<path d="M1001.8,89.1l34.6,46.5l-4,3l22.2,29.8l11.9-8.8l-23.5-31.5l-33.4-44.8L1001.8,89.1z"/>
<path d="M995.3,131.2l8.4,12.1l16.8-11.7l-8.4-12.1L995.3,131.2z"/>
<path d="M1023.7,173.2l11.6,16.4l17.4-12.3l-11.6-16.4L1023.7,173.2z"/>
<path class="st0" d="M1121.6,331.3l-38.2,19.3l-13.1,9.1l-5.4,17.2"/>
<path class="st0" d="M1175.3,574.6l63.4,153.8l39.4,94.8"/>
<polyline class="st0" points="948.1,89.8 941.1,80.1 938.4,76.3 "/>
<path d="M1313.7,865l-9.5-32.3l23.9-7l9.5,32.3L1313.7,865z"/>
<path class="st0" d="M1499.9,623l-8-32.2l-1.5-6.4"/>
<path d="M1546.7,379.6l1.2-20.6l-22.5-1l-5.1-1l-4.5-1.4l-5.5-2.8l-17-10.4l-11.7,15.9l19.1,13.3l7,3.2l7.2,1.9l8.3,1.2
	L1546.7,379.6z"/>
<polyline class="st0" points="1475.7,94.3 1543.9,56.1 1611.1,20.8 1614.8,19.2 "/>
<path d="M843,615.6l4.6,7.8l19.1,32.5L887,691l31.7-18.3l-8.9-17.2l12.8-8.2l-3.7-12.7l-16.7-17.9l8.7-8.1l-11.2-36.1l-10.4-2.3
	l-28.4,28l2,6.9l-12.9,3.8L843,615.6z"/>
<path d="M956,616.1l3.2,8.3l3.9-1.5l2.2,5.7l27.1-10.6l-7.2-18.8l-5.2,2l-8.8,3.3l-10.6,4.1l-2.2,0.8l1.9,5L956,616.1z"/>
<path class="st0" d="M1060.3,3.1l-52.9,41.1l-3.1,2.4"/>
<path class="st0" d="M1459.9,958.5l-8.7-27l-21.2-66.8l-25.8-81.2l-19.5-60.5l-25-78.4l-7.6-23.7l-4.4-13.7l-24.4-79.3"/>
<path class="st0" d="M1121.6,331.3l-15.6,13.1l-41.1,32.4l-38.1,29.7l-17.5,15.6l-17.1,16.2l-28.7,29.7L908.5,517L895.8,528"/>
<line class="st0" x1="1313.9" y1="932.4" x2="1278.1" y2="823.3"/>
<polygon points="1614.8,35.2 1614.8,65.9 1583.1,77.2 1570.3,48 1611.3,28.7 "/>
<path class="st0" d="M1217,274.7l-5,3.7l-25.9,19.2l-21.2,0.9"/>
<path class="st0" d="M948.1,89.9l-32,23.9L893,130.4l-23.4,16.2l-32.9,21.6"/>
<polygon points="1548.1,0.5 1530.3,12.2 1527.8,8.9 1522.2,0.5 "/>
<path class="st0" d="M956.1,684.9l-4.9-14.4l-25.6-77.1l-5.7-17.6l-7-18.6l-2.9-5.7L895.8,528"/>
<path d="M1491.6,186.2l-7.3-14.5l-3.3,2.5l-8.9-12.7l-13.3,9.2l3.5,5l-4.3,2.9l15.3,23L1491.6,186.2z"/>
<path d="M1492.5,147.1l12.8,20.5l-5.3,4.6l-0.3,7.4l-8.1,6.6l-7.3-14.5l-3.3,2.5l-8.9-12.7L1492.5,147.1z"/>
<path class="st0" d="M995.3,806.3l-9.7-29.1l-22.4-68.8l-7-23.6"/>
<path d="M1186.9,580.6l10,26.7l6.9-2.6l2.1,5.7l8.6-3.2l-12.1-32.4L1186.9,580.6z"/>
<path d="M1160.2,59l8.9,12.5l-7.3,5.1l5.4,7.6l1.8,2.5l6-4.2l4.5,6.4l12.3-8.7l-22.3-28.6L1160.2,59z"/>
<polyline class="st0" points="1614.8,108.4 1613.9,109.3 1546.6,169.1 1532.8,181.2 1518.1,193.8 1441.4,259 1431.3,267 
	1415.7,279.4 1407.4,286.5 1380.9,309.2 1280.7,391.1 1141.1,511.3 1103,544 1019.9,626.1 967.3,673.3 956.1,684.8 "/>
<path d="M942.8,596.2l4.9,13.9l11.2-6.1l1.7,4.6l10.6-4.1l-5.9-20L942.8,596.2z"/>
<path d="M1485.1,94.4l50.2-31.5l17.2,27.4l-24.6,15.3l-21,13.9l-4.6,2.3L1485.1,94.4z"/>
<path d="M1424.1,142l7-4.5l-1.6-2.5L1450,122l6.3,9.8l7.2,11.5l2.8,4.3l-27.4,17.5L1424.1,142z"/>
<path d="M1403,155l13.1,20.2l12.2-7.9l-13.1-20.3L1403,155z"/>
<path d="M1380.3,169.8L1403,155l13.1,20.2l2.2,3.4l-22.7,14.7L1380.3,169.8z"/>
<path d="M1319.1,217.5l9.3,13.9l-1.9,15.9l-0.2,8.5l2.5,6l5.1,3l5.3,0.5l9.7,0.2l7.2-0.7l6.7-6l7.2-10.9l1.6-4.2l-2.6-5.1l-4.8-1.6
	l-7.8-12.5l1.9-9.2l4.6-11.1l-7.8-11.1l-24,16.1L1319.1,217.5z"/>
<path d="M1319.1,217.5l-42.2,25.2l7.4,10l25.9,6l16.3-11.4l1.9-15.9L1319.1,217.5z"/>
<path d="M1208.2,298.9l15.6,44l24.4-8.2l-17.8-52.1L1208.2,298.9z"/>
<path d="M1306.7,397l114.4-91.9l8.6,1.6l2.1,4.5l-0.4,23l8.2,30.7l25,29.9L1407,495.1l-20.8-21.8l30-47.1l12.8-21.6l0.5-10.3
	l-10.3-13.1l-4.5-9.6l-0.8-4.1l-2.4-12l-8.3-3.8l-16.3,13.1l-51.3,41.2l3.5,13.3l-20.7,7.5l-4.5-14.4l-7.8-11.1l-0.5-1.2l0.2-1.7
	L1306.7,397z"/>
<path d="M1457.4,303.4l29.4,2.7l0.3-4.5l0.7-3.2l0.7-2.9l1.5-4.4l-26.2-10.5l-3,6.7l-1.8,5.8l-0.9,4.7L1457.4,303.4z"/>
<polygon points="1614.8,128 1614.8,156.9 1607.8,159.6 1601.8,144.3 "/>
<path d="M823.8,413.6l23.1,29.4l15.7-13.3l-7.4-8.6l-3.1,2.5l-5-6.2l-2.7,2.2l-3.8-4.8l-2.8,2.3l-7.2-8.9L823.8,413.6z"/>
<path d="M866.1,477.1l7.2-6.5l8.5,9.4l35.5-32l-8.3-9.5l-3.9-4.4l9-8.1l20.1,21.6l0.2,2.7l-1.4,4.8l-42.2,41.4l-2.9,1.7l-3.7-1
	L866.1,477.1z"/>
<path d="M845.8,445.7l23.2-20.4l10.8,12.3l-2.8,2.5l3,3.5l1.9,5l-0.7,2l-0.9,2.4l-0.7,1.7l-1.2,2.9L866,468.6L845.8,445.7z"/>
<path d="M925,535.2l3.2,11.3l-2.4,0.7l17,48.9l22.4-11.7L952,549.3l13.8-13.1l-7.2-7.6l14.7-13.9l6.5,6.9l12.2-11.5l-7.9-8.4
	l10.8-10.2l-11.3-11.9L925,535.2z"/>
<path d="M825.4,633.6l3.1-2.1l-2.2-3.5l2.7-2.3l-1.6-3.2l12.4-13.5l3.2,6.7l4.6,7.8l-2.5,2.1l14,26.1l-14.7,10.3L825.4,633.6z"/>
<polygon points="835.3,672.9 832.2,674.5 821.2,680.4 820.4,679.1 820.4,647.6 "/>
<polygon points="829,752.7 820.4,756.7 820.4,737.6 "/>
<polygon points="844.8,735 839.7,737.8 844.8,747 831.9,754.2 820.4,733.5 818.2,729.5 820.4,728.2 831.2,722.2 836.1,731 
	841.6,727.9 837,719.7 846.2,714.6 859.7,738.9 850,744.3 "/>
<path d="M855,727.2l7.5,12.7l25.1-14.9l-7.8-12.6L855,727.2z"/>
<path d="M869.1,694.8l13.1-8.1l4.5,7.1l1.3-0.8l14.2,23l-14.5,9l-7.8-12.6L869.1,694.8z"/>
<path d="M901.1,710.9l-11.7-19.4l34.6-20.8l11.7,19.4L901.1,710.9z"/>
<path d="M992.4,618l13.6-13.9l-9.1-26.3l-20,6.1l-6.1,1.9l4.5,13.4l3.8-1.1l0.9,3l5.2-2L992.4,618z"/>
<path d="M1006,604.1l-9.1-26.3l31.8-12.9l5.4,11.6L1006,604.1z"/>
<path d="M1045.1,525l17.4-15.8l19.6,21.6l-18.4,16.7l-16.4-16.5L1045.1,525z"/>
<path d="M1062.5,509.2l3.7-3.1l-12.4-13.8l26.2-16.9l10.9,16.2l20.5-14.3l6.4,13.7l0.6,5.5l-6.1,7.2l-30.2,27.2L1062.5,509.2z"/>
<path d="M1100.7,378.6l8.2,11.8l9.3,13.5l42.1-31.6l-10.1-33.3L1100.7,378.6z"/>
<path d="M983.8,479.7l11.3,11.9l7.8-8.2l5.7,5.8l5.9-5.7l4.5-4.4l-13.9-14.3l-6.1-0.2L983.8,479.7z"/>
<path d="M1132.7,440.6l1.2,2.5l10.4,21.1l1.4,2.9l38.1-30.6l-10.1-18.4L1132.7,440.6z"/>
<path class="st4" d="M1218.6,408.3l-20.1-57l-13-36.9l-18.4,11.6l1.5,4.9l24.9,78.3l4.9,15.1L1218.6,408.3z"/>
<path d="M1257.1,263.7l24.2,74.7l20.6,6l57.9-50.8l1.7-12.5l-95.2-23.9L1257.1,263.7z"/>
<path d="M1456.4,205.1l-25.8,19.7l-33.2,22.2l6,8.8l57.4-44.7L1456.4,205.1z"/>
<path d="M1506.8,119.5l21-13.9l3.4,5.1l5.8-3.8l7.2,10.9l24.1-15.9l10.6,16.1l-50.9,33.6L1506.8,119.5z"/>
<polygon points="1622.9,66.6 1614.8,76 1593.7,100.2 1583.1,77.2 1614.8,65.9 1621.4,63.5 "/>
<line class="st0" x1="1063.5" y1="0.5" x2="1060.3" y2="3.1"/>
<polygon points="1274.5,0.5 1255.8,11.8 1249,0.5 "/>
<line class="st0" x1="836.7" y1="168.3" x2="820.4" y2="178.4"/>
<polygon points="1527.8,8.9 1505.9,23.1 1491.3,0.5 1522.2,0.5 "/>
<polygon points="1505.9,23.1 1487.7,34.9 1469.9,7.3 1480.4,0.5 1488.1,-4.5 1491.3,0.5 "/>
<path d="M1369.8,82.1l19.9,29.1l38.3-26l-18.9-29.3l-23.2,15.5L1369.8,82.1z"/>
<path d="M1389.7,111.1l-20.8,14.1l-9-13.1l-12.4-17.9l19-13.1l1.8-1.2l1.4,2.1L1389.7,111.1z"/>
<path d="M1325.2,130.7l10.2-7l2.5,3.6l22-15.2l9,13.1l-32.3,21.9L1325.2,130.7z"/>
<polyline class="st0" points="820.4,439.1 882.7,511.9 895.8,528 "/>
<polygon points="872.9,520.3 839.2,549.2 838.3,548.3 822.3,529.8 820.4,527.6 820.4,460.7 821.2,460 "/>
<polyline class="st0" points="995.3,806.3 1005.5,839.9 1034,932.4 "/>
<path class="st0" d="M1236.4,244.9l24.3,6.2"/>
<path class="st0" d="M1362.9,278.8l1.7,11.7l16.3,18.7"/>
<path d="M1063.2,297.3l-21.2,16.9l19.8,25.5l21.2-17L1063.2,297.3z"/>
<path d="M1206.9,151l-12.7-17.5l-16.6,12.1l29.5,40.6l16.6-12l-13.7-18.9l4.9,3.3l5.5,1.2l5.6-0.8l5-2.6l3.8-4.1l2.2-5.2l0.4-5.6
	l-1.5-5.4l-3-4.3l-4.2-3.2l-5-1.7l-4.1,0h-1.2l-5,1.6l-4.2,3.1l-3,4.3l-1.5,5.1l0.2,5.3L1206.9,151z"/>
<path d="M1268,161.2l-3.2-5.6l-4.9-4.2l-6-2.3l-6.4-0.1l-6.1,2.1l-5,4l-3.4,5.5l-1.3,5.7l0.5,5.8l2.3,5.4l16.2,21.3l2-2l1.5-2.8
	l-0.1-4.5l4.6-2.6l2.5,1.8l2.6,0.3l4.7-3.6l4.2-3.3l3.8-4.4l1.3-3.8l-0.2-4.4l-7.1-10L1268,161.2z"/>
<polyline class="st0" points="833.3,0.5 827.6,4.7 824.9,6.7 820.4,10 "/>
<path d="M1575.4,353l-9.5-37.1l-18.3,4.7l0.2,1.7l-4.1,0.8l0.2,2l-16.6,4.1l0.6,2l-4.4,0.9l3.8,13l6.5-1.3l0.9,3.6l14,0.6l13.5,0.7
	l0.3,1l1.9-0.4l0.9,5.6L1575.4,353z"/>
<path d="M1246.7,603.5l3.8,9.6l8.2-3.3l-3.8-9.6L1246.7,603.5z"/>
<path d="M1250.5,613.1l9,22.5l12.2-4.9l-9-22.5l-4,1.6L1250.5,613.1z"/>
<path d="M1265.5,601.9l4.5,13.9l4.1-1.3l2.7,8.5l15-4.8l-7.6-23.6l-8.2,2.6l0.4,1.2L1265.5,601.9z"/>
<path d="M1499.8,665l2.1,7.4l1-0.3l1.8,6.4l7.1-2l-0.5-1.8l4.7-1.3l-1.3-4.7l2.9-0.8l-2.1-7.2L1499.8,665z"/>
<path d="M1522.7,673l14.7-3.2l-2.4-11.2l-14.7,3.2L1522.7,673z"/>
<path d="M1391.8,841.7l-5.8,1.8l0.6,1.9l-4.9,1.5l-0.6-1.8l-6.5,2l1,3.2l-3.1,0.9l2.5,8l20.3-6.3L1391.8,841.7z"/>
<path d="M1412.4,897.4l-6.8,2l0.4,1.2l-5.5,1.7l0.8,2.6l-5.2,1.6l1.4,4.5l-10.8,3.2l2.1,7l25-7.5l-0.8-2.8l3.3-1L1412.4,897.4z"/>
<path d="M1318.5,883.9l5,15.9l13.9-4.4l-4.9-15.8L1318.5,883.9z"/>
<path d="M1323.5,899.8l4.9,15.3l13.9-4.4l-4.9-15.3L1323.5,899.8z"/>
<path class="st0" d="M1007.4,44.2l14,20l40,56l54.2-40.9"/>
<path d="M1340.8,489.2l21.4,61.3l38.9-47.8l-15.7-16.8l-3.9-2.2l-4.1-1.2l-6.5-1.1l-6.2,0.5L1340.8,489.2z"/>
<path d="M1129.9,697.6l2.5-5l11.6-4.3l-12.5-33.4l31.4-11.7l27.5,73.6l-28.6,10.7l3.8,10.3l-20.8-1L1129.9,697.6z"/>
<path d="M1337.4,429l18.2-1.1l1.8,18l9.8,17.5l-15.5,8.4l-6.4-10l-16.4,5.8l-7.1-21.3l17.1-4.4L1337.4,429z"/>
<path class="st0" d="M1096.5,600.4l22.8,51"/>
<path d="M1543.2,490l12.4-3.1l13.4,53.9l-12.4,3.1L1543.2,490z"/>
<path d="M1514.3,511.8l22.1-5.5l9,36.5l-22.1,5.5L1514.3,511.8z"/>
<path d="M1467.6,458.1l2.2,9.3l26.3,14.2l19.6-36.4l-2.5-18.6l-20.8-11.9L1467.6,458.1z"/>
<path class="st0" d="M985.6,777.2l-9.3,3.3l-11,4.1l-68.7,24.2l-22.2,7.9"/>
<path class="st0" d="M875.9,882.6l-12.5-50.2"/>
<polyline class="st0" points="1604.4,8.6 1611.1,20.8 1614.8,27.5 "/>
<path d="M1230.3,928.6l26.3-7l-4.1-10l-6.7-5.2l-7.6,0.7l-5.8,3.2l-5.7,8.5L1230.3,928.6z"/>
<path class="st2" d="M1036,889.1l-17.6-54.9l17.9-5.9l5.1,13.4l40.4-13.9l2,5.8l-5.2,1.6l9.2,28.9l2,6.7l-44.7,15.2L1036,889.1z"/>
<path d="M1454.9,485.7l30.2,18.2l-16,26.7l-30.2-18.2L1454.9,485.7z"/>
<path d="M1528.4,273.7l22.8-6.4l7.2,25.5l-22.8,6.4L1528.4,273.7z"/>
<path d="M1470.6,548l15.8-3.4l4,18.4l-15.8,3.4L1470.6,548z"/>
<path d="M1428.7,527.2l26.1,13.8l-6.9,13l-26.1-13.8L1428.7,527.2z"/>
<path d="M1244.3,614.8l5.6,16.4l-31.8,10.8l-5.6-16.4L1244.3,614.8z"/>
<path d="M1368.5,876.2l6.1,19.5l40.8-12.7l-6.1-19.6L1368.5,876.2z"/>
<polygon points="1219.5,10.8 1183.6,32.5 1175.5,19.1 1206.2,0.5 1211.4,-2.6 1213.3,0.5 "/>
<polygon points="1188.3,0.5 1159.9,22.3 1150.7,10.3 1153.8,7.8 1148.2,0.5 "/>
<path d="M1202.4,55.2l29.2-18.7l24,37.6l-29.3,18.7L1202.4,55.2z"/>
<path d="M1224.4,94.6l2-1.8l29.3-18.7l1.9-1.1l31.1,47.8l-22.3,14.6l-10.8,7.1L1224.4,94.6z"/>
<path d="M1284.2,24.4l28.6,46.4l-16,9.9l-28.6-46.4L1284.2,24.4z"/>
<path d="M1127.9,472.6l16.4-8.5l-10.4-21.1l-11,6.2l3.3,6.5l-5.6,2.9L1127.9,472.6z"/>
<path d="M1113.8,448.6l20.5-11.6l-14.1-24.9l-3.6,2.1l-16.9,9.6L1113.8,448.6z"/>
<path d="M1099.7,423.7l16.9-9.6l-11.7-21.4l4-2.4l-8.2-11.8l-17.9,13.9L1099.7,423.7z"/>
<path class="st0" d="M1527.4,311.5l37.6-10.6l13.4-3.8"/>
<path class="st0" d="M1372.2,620.9l-1.1-4.6l-2.6-15.1"/>
<polyline class="st0" points="969.2,678.6 971.9,685.8 974.5,692.7 977.9,704.4 985.3,729.7 989.6,744.7 1003.5,804.1 1044.1,932.4 
	"/>
<path class="st0" d="M935.4,687.8l5,13.1l8,25.9"/>
<path class="st0" d="M948.5,726.8l14.7-18.4l11.3-15.7"/>
<path class="st0" d="M960.8,657.3l-9.5,13.2l-15.8,17.3"/>
<path class="st0" d="M948.5,726.8l16.7,57.8l19.2,62.3l33.5,102l22.7,68.9"/>
<path d="M846.3,253l15.9-12.2l-5.4-7.1l-3.1,2.3L839,216.9l-15.2,11.7l11.4,14.8l7.8-6l3.4,4.5L841,246L846.3,253z"/>
<path d="M1496.6,552.3l16.1-4.5l-7.8-28l4.4-1.2l-3.5-12.5l-11.2,3.1l4.6,16.7l-9.2,2.6L1496.6,552.3z"/>
<path d="M1397,580.7l6.5,3.4l1.7-3.2l8.6,4.5l6.6-12.5l10,5.2l7.3-13.9l-25-13.1L1397,580.7z"/>
<path d="M1517,878.4l17.7-4.8l-4.2-15.6l-17.7,4.8l2.1,7.8L1517,878.4z"/>
<path d="M1254.1,827.9l16.4-4.6l-3.1-11.2l-16.4,4.6L1254.1,827.9z"/>
<path d="M1162.6,815.8l21.2-7.7l3.5,3.9l10.1-3.5l0.7-5.6l-3.9-4.7l0.8-5.8l-10-7.8l-11.5,4.2l0.2,5l-5.3,1.7l-4.7-4.2l-6.5,2
	l-0.5,4.3l2.8,9L1162.6,815.8z"/>
<path d="M1201.7,805.2l14.1-3.7l-3-11.6l-14.4,3.6L1201.7,805.2z"/>
<path d="M1242.8,803.2l12.9-4.8l-16-42.7l5.9-2.2l-7.3-19.5l-18.7,7L1242.8,803.2z"/>
<path d="M1120,759.2l29.1-11.1l-4.3-11.3l-14.9-39.1l-29.1,11.1L1120,759.2z"/>
<path d="M1075.9,776.1l14.5-4.9l-8.8-26.2l-14.5,4.9L1075.9,776.1z"/>
<path d="M1096.1,764.4l15.4-4.8l-6.8-21.6l-15.4,4.8L1096.1,764.4z"/>
<path d="M928.7,921.4l10-3l-13.5-44.3l-10,3L928.7,921.4z"/>
<path d="M910,928.5l10-3l-13.5-44.3l-10,3L910,928.5z"/>
<polygon points="901.5,932.3 901.3,932.4 891.5,935.4 890.6,932.4 878,891.1 888,888.1 "/>
<polygon points="838.3,548.3 826.5,558.5 820.4,558.1 820.4,558 820.4,531.5 822.3,529.8 "/>
<path class="st0" d="M882.3,880.5l-7.9-22.7"/>
<path class="st1" d="M-21443.6-1008.9l-64.4,0.1l-50.8,0.9l-28-0.2l-20.6-4.2l-22.1-5.5l-26.8-7.8l-18.7-6.4l-25.8-13.6l-28.4-16.1
	l-25.6-17.8l-26.9-18.9l-25.4-18l-26.8-19.8l-21-14.8l-12.9-9.9l-10.8-4.8l-12.7-4.6l-19.4-7.4l-20.3-5.1l-21.9-1.6l-22.8-0.3
	l-24.2-0.9l-38.1-3.4l-31.8-7.2l-36.9-7.4l-34.1-8.7l-39.9-12.5l-33.3-6.9l-21-4.9l-20.3-4.1l-28.1-4.9l-26.6-2.5l-49.8-3.2
	l-33.5,0.3l-32.8,1.8l-30.4,5.2l-25,4.6l-25,7.2l-31.7,14.1l-22,9.5l-21,9l-19.2,7.9l-13.7,7.8l-20.3,13.6l-17.1,14.8l-25.6,20.6
	l-16.6,10.8l-12,6.7l-18.3,5.5l-27.9,6.9l-19.8,4.1l-51.5,10.1l-54.9,8.8l-25.9,6.2l-39.9,10.6l-36.3,9l-28.6,5.7l-16.8,0.5
	l-14.6,0.9l-19.4-0.9l-20.5-3.7l-34.9-3.4l-22.4-2.6l-19.8-1.6l-27,2.8l-14.1,4.1l-10.2,5.3l-11.8,8.7l-27.7,24.7l-19.7,18.2
	l-13.2,12.4l-12.3,14.8l-10.4,15.5l-14.4,22.4l-9.3,11.6l-12,17.3l-12,11.6l-5.6,5.1l-14.6,9.9l-28.6,16.2l-10,7.2l-7.6,7.6
	l-6.9,9.9l-2.5,10.4l0.5,13.2l4.6,9.2l5.7,12l11.1,16.6l10.2,7.6l8.5,3.4l11.6,2.3l18.5-0.3l31.7-6.5l28.6-6.4l18.5-3.8l7.2,5.8
	l7.9,14l0.8,9.1l-0.3,16l-3.2,11.1l-10.4,10.2l-35.5,24.2l-20.7,7.2l-23.7,2.8l-15.6-1.1l-96.5-12.2l-92-14.2l-14.4,0.2l-15.7,2.6
	l-14.6,4.7l-13.2,6.1l-11.6,6.6l-7.7,10.2l-6.3,10.2l-7.6,20.4l-5.9,18.8l-2.4,14.8l-0.3,13.7l1.2,12.1l2.3,10.7l12.8,58.4l5.4,15.7
	l60.1,132.1l37.3,41.8l14.8,68.9l-91.2,136.6l-18.9,141.1l-58.4,172.7l-57.3,158.1l-88.2,113.9l-70.6,101.8l-51.7,138.9l-67.7,12.4
	l-132.2-82.4l-96-11.3l-91.5-13.6l-137.8-27.1l-60.8,72.2l-17.8,119.7l-41.3,51.7l-68.7,22.6l-149.5-19.1l-135.5-5.6l-68.8,32.7
	l-5.5,67.7l12.6,105l-25.7,49.7l-167.3-49.7l-52-11.3l-36,13l-30.5,35.6l17,50.8l-2.2,35l-28.2,28.2l-81.6,8l-111.4,9l-102.5,61.5
	l-47.4,64.9l-72.6,54.2l-88.7-16.9l-90.4-55.3l-48.4,0.6l-22.5,19.2l-19.1,55.3l-5.6,48.5l-70,24.8l-69.9,30.5l-38.3,64.3l-7.6,50.9
	l31.8,101.6l64.4,108.2l20.4,31.6l-25.9,48.5l-98,101.6l-64.3,20.3l-38.3,56.5l-19.1,57.6l1.8,45.5l-15.2,41.3l-47.3,28.3
	l-57.5,57.6l-99.4,75.7l-132.9,59.7l-19.1,21.4l4.6,45.2l19.4,85.8l48.7,76.8l62.3,94.8l60.1,118.5l26.2,124.2l4.7,89.2l-14.5,102.7
	l-7.9,24.8l-17.9,56.4l-56.3,61l-37.2,28.2l-27,62.1l-12.3,49.7l-30.4,41.7l-113.9,66.6l-95.4,65.4l-13.7,34.3l-5.1,47.3l-10.9,30.7
	l-13.8,29.1l-8.6,16.1l-10.9,11.9l-23.2,32.1"/>
<path d="M1557.1,703.3l4.1,15.5l5.6-1.5l-0.6-2.4l6.9-1.8l-3.4-13L1557.1,703.3z"/>
<polyline class="st0" points="841.6,0.5 855.7,16.1 857,17.6 "/>
<polygon points="1396.9,0.5 1366.3,17.6 1359.9,9.1 1374.4,0.5 "/>
<path d="M1469.7,48.8l5.8-3.5l6.9-4.2l-9.1-15.1l-12.7,7.7L1469.7,48.8z"/>
<path d="M1408.6,42.8l8-5l-11.1-17.6l-4.2,2.7l-3.8,2.4L1408.6,42.8z"/>
<path d="M1478.6,308.6l3.2,11.1l-7.9,2.3l2,7l8.7-2.5l3.2,11.2l-16.7,4.8l-3.8,1.1l-8.5-29.3L1478.6,308.6z"/>
<polyline class="st0" points="1015.8,0.5 979.3,27.1 970.7,34.4 967.6,36.1 953.1,41.5 945.4,47 942.6,49.6 936.1,57 932.2,61.6 
	927.9,67.9 925.7,71.8 922.3,74.4 915,77.2 911.2,78.4 907.1,79.8 870.8,105.1 832.9,130.3 820.4,138.4 "/>
<polyline class="st0" points="967.6,36.1 969.1,24.9 973.3,19 996.2,0.5 "/>
<path class="st0" d="M1494.4,386.3l-9.8-5.3l-7.6-4.8l-5.9-4.6l-7-6.4"/>
<polygon points="1007.4,932.4 951.3,932.4 1002.6,916.7 "/>
<polygon class="st2" points="1305.7,932.4 1287.1,932.4 1303.6,926.5 "/>
<path d="M1269.7,887.6l14.2-4.4l-6.6-21.3l-6.4,2l4.7,15.1l-7.7,2.4L1269.7,887.6z"/>
<path d="M1315.4,614.2l-7.8-26.3l-20.4,6.1l3.3,10.9l3.9-1.2l4.6,15.3L1315.4,614.2z"/>
<path d="M1477.7,265.7l19.4-15.2l3.8-3.1l6.1,7.1l-23.6,18.4L1477.7,265.7z"/>
<line class="st0" x1="1614.8" y1="762.1" x2="1612.9" y2="755.3"/>
<path class="st0" d="M1451.2,931.5l20.5-5.7"/>
<path class="st0" d="M1471.7,925.9l96.6-29.8"/>
<path d="M1198.5,351.3l25.3-8.5l-15.6-44l-22.7,15.5L1198.5,351.3z"/>
<line class="st0" x1="1361.4" y1="40.8" x2="1337.1" y2="0.5"/>
<path class="st0" d="M1361.4,40.8l35.4-24.9l21.8-15.3"/>
<path class="st0" d="M1096.5,600.4l-68.9,32.2l-11.7,11.4l-44,41.9"/>
<path class="st0" d="M1027.6,632.6l117.6-113.6"/>
<path d="M1064.3,621l1.3,0.7l19.2,43.7l3.1,5.8l2.3,6l-10,4.5l-6.9-15.4l-14.8,6.6l-16.2-36.1l5.4-6.1l8.9-6.4L1064.3,621z"/>
<path class="st0" d="M985.3,729.7l96.9-33.3"/>
<path d="M1087.8,671.2l25.3-9.4l18.4-6.9l12.5,33.4l-11.6,4.3l-32.2,11.9l-10.1-27.3L1087.8,671.2z"/>
<path class="st0" d="M1019.9,687.2l-1.3,4.9l-40.7,12.4"/>
<path class="st0" d="M1018.1,649.5l6.7,17.7l-4.9,20"/>
<path class="st0" d="M1015.9,644l2.2,5.6"/>
<path d="M850.1,664.1l13.1-8.1l19,30.7l-13.1,8.1L850.1,664.1z"/>
<polygon points="850.2,707.4 835.3,715.5 820.4,688.2 817.3,682.6 820.4,680.9 821.2,680.4 832.2,674.5 "/>
<path d="M1582,531.3l26.7-7.3l-14.2-52l-26.7,7.3L1582,531.3z"/>
<polygon points="824.7,254 820.4,257.6 820.4,249 "/>
<path class="st0" d="M1004.3,46.6l-56.2,43.2"/>
<path d="M841.4,308.7l13.3-11l-19.3-23.4l-13.3,11L841.4,308.7z"/>
<polygon points="834.5,266.7 820.4,277.7 817.3,280.1 808.8,269.1 820.4,260.1 826,255.7 "/>
<polygon points="1160.7,932.4 1136.5,932.4 1135.3,928.6 1157,921.1 "/>
<polygon points="1177.8,932.4 1168.8,932.4 1176.9,929.8 "/>
<line class="st0" x1="1600.4" y1="10.2" x2="1595.5" y2="0.5"/>
<path class="st0" d="M1469.1,84.4l4.1,6.2l2.5,3.8l5.8,8.2l43,65.9l8.3,12.7"/>
<path class="st0" d="M1469.1,84.4l-3.4,2.6l-3.3,1.7l-117.5,84.7l-50.8,35l-44.2,28l-13.5,8.5"/>
<path class="st0" d="M1418.6,0.6l11.9,19.9l28.1,47.2l10.4,16.6"/>
<polyline class="st0" points="820.4,599.1 832.9,586.7 836,583.8 878.7,543.4 895.8,528 "/>
<path class="st1" d="M-41451.4,37453.9l-2.7,18.4l-3.6,18.2l-4.4,18l-5.3,17.8l-6.6,18.9l-7.6,18.5l-8.5,18.1l-9.4,17.7l-21.9,30.5
	l-21.2,31l-20.6,31.4l-24.3,38.8l-23.3,39.3l-60.8,129.5l-40.6,72.5l-42,64l-75,100.6l-57.5,71.1l-37.9,39.4l-54.1,38l-44.2,26.7
	l-28.8,21.1l-43.5,28.8l-16.8,18.3l-4.8,24.6l0.7,9.8l11.4,57.7l0.1,20.4l-4.8,28.1l-6.3,15.5l-8.4,12.7l-7.7,3.5l-13.4,0.7
	l-30.2,1.4l-22.5-1.4l-52.1,5.6l-18.3,8.4l-15.5,9.1l-16.8,10.6l-19.7,3.5l-16.9,2.1l-14.1-2.1l-10.6-1.4l-14.8,0.7l-16.9,4.9
	l-16.9,8.4l-28.1,5.6l-40.1,4.9l-20.4,7.7l-30.9,12.7l-40.8,18.3l-13.4,6.3l-33,8.4l-20.4,9.2l-16.1,9.9l-14.7,14.1l-13.3,8.4
	l-27.4,10.5l-45,13.4l-68.9,22.5l-35.8,15.5l-19.7,9.9l-12.6,7l-15.4,12l-5.6,9.2l-3.5,12.7l-14,13.4l-12.6,9.2l-9.1,11.3l-8.4,12
	l-4.9,14.8l-6,6.3l-6.7,3.5l-52.1,1.4l-22.5,4.9l-6.3,6.3l-4.2,10.5l2.9,14.8l0.8,14.1l3.6,25.3l0,9.8l-5.6,13.4l-4.9,8.4l-10.5,12
	l-21.7,21.1l-27.4,21.1l-5.6,4.9l-30.2,9.8l-9.1,3.5l-32.3,14.8l-12.7,4.2l-11.3,0.7h-18.3l-15.5-1.4l-42.9-7h-14.1l-16.9,4.2
	l-9.8,5.6l-29.5,18.3l-67.4,48.5l-33,22.5l-31.6,21.1l-35.1,20.4l-21.8,12.7l-40,22.5l-44.9,26.7l-28.8,14.1l-23.2,8.4l-19.7,2.8
	l-23.9,5.6l-47.1-3.5l-21.8-3.5l-14.1-8.4l-18.3-12.7l-17.7-21.1l-13.4-10.6l-14.8-6.3l-20.4-4.9h-26.7l-42.9,9.2l-23.9,9.9
	l-19.7,14.1l-10.5,8.4l-14,24.6l-12.6,28.1l-7,12.7l-14.7,16.2l-12.6,8.4l-7,4.9l-14.1,5.6h-24.6l-23.9-2.8l-42.2-1.4l-13.4,2.1
	l-22.5,11.9l-14,9.2l-19.7,13.4l-26.7,14.8l-33,14.1l-49.2,22.5l-19,9.8l-44.9,31.7l-62.5,31l-47.8,23.2l-38.6,19.7l-24.6,15.5
	l-46.4,20.4l-26,11.3l-14,9.1l-34.4,18.3l-16.8,9.9l-14.7,14.1l-24.5,27.4l-15.4,19.7l-16.1,34.5l-7.6,30.9l-14,35.2l-16.1,27.4
	l-14,11.3l-19.7,14.8l-42.1,26l-63.9,35.9l-31.6,23.2l-32.3,19l-12.6,9.2l-33,23.2l-12.6,9.1l-23.2,12.7l-25.3,7l-14.8,2.8
	l-21.1,9.1l-11.9,10.6l-21.8,19l-41.4,20.4l-18.2,11.2l-33.7,18.3l-12.6,6.3l-33,12l-31.6,12.7l-38.6,16.2l-22.5,9.8l-23.2,7
	l-27.4,9.8l-45.7,21.8l-29.5,14.8l-25.3,12l-43.5,26.7l-25.3,17.6l-17.5,15.5l-35.8,27.4l-14,12l-29.5,19.7l-19,9.9l-14.8,7.7
	l-26.7,8.4l-11.9,4.2l-23.9,7.7l-8.4,8.4l-14,18.3l-9.1,19l-4.9,18.3l-6.2,21.1l-9.1,21.1l-11.2,22.5l-9.1,12.7l-12.6,14.1l-7.7,7
	l-14.8,9.1l-9.8,2.1l-33.8,4.2"/>
<path class="st0" d="M1287.6,626.7l60.2-19.6"/>
<path class="st0" d="M1279.8,670.9l61.7-19.8l18.3-6.5"/>
<path class="st0" d="M1555,200.5l-6.6,5.3l-6,4.7l-4.5,3.6"/>
<path class="st0" d="M1348.7,179.9l127-85.6"/>
<path class="st0" d="M1219.7,719.6l6.8,13.2l6,11.7"/>
<line class="st0" x1="1614.8" y1="411.1" x2="1610.2" y2="392.4"/>
<path d="M870.8,377.6l-17.9,15.4l21.3,25.3l18.4-15.6L870.8,377.6z"/>
<path class="st0" d="M877.5,365.1l86,103"/>
<path class="st0" d="M839.9,323.3l1,3.5l1.5,3.3l2.3,3.4l27.5,32.8l1.9,0.5l1.9-0.4l1.6-1.1l0.8-1.3l0.3-1.5l-0.2-1.5l-27-31.8
	l-3.4-2.7l-3.9-1.9L839.9,323.3"/>
<path class="st0" d="M1236.4,244.9l-71.5,53.6l-43.4,32.8"/>
<polyline class="st3" points="824.7,0.5 833.3,0.5 841.6,0.5 876.8,0.5 878.7,0.1 878.2,0.5 975.6,0.5 950.3,23.4 888.8,74.5 
	858.9,97.5 820.4,122.8 820.4,0.5 820.4,-0.7 "/>
<path d="M1478.6,308.6l8.2-1.7l0-0.9l-29.4-2.7l0.5,5.7l1,5.3L1478.6,308.6z"/>
<path d="M1503.2,275.6l3,5.1l-5.2,3.1l4.4,7.3l3-1.8l4.6,7.7l4.2-2.5l-1.5-2.6l8.4-5l-8.1-13.7l-3.2,1.9l-2.3-3.8L1503.2,275.6z"/>
<path d="M1493.4,342.3l-3.9-2.8l-15.9,12l8.1,6.7L1493.4,342.3z"/>
<path d="M1473.7,351.5l-2.5-8.9l16.7-4.8l1.6,1.8L1473.7,351.5z"/>
<path d="M1575.4,353l3.8,14.9l0.1,4.3l-1.2,3.8l-1.4,1.6l-2.9,1.6l-2.6,0.1l-10.4,0.6l-0.5-24.1l5-0.8L1575.4,353z"/>
<path d="M1501.1,326.3l1.8,8.9l-4.2,5.3l8.3,5.4l2.7-4l7.3-1.9l-4.7-16.6L1501.1,326.3z"/>
<path d="M1512.2,323.4l-3.9-14.7l-6.4,1.7l0.4,1.7l-4.7,1.2l3.4,13L1512.2,323.4z"/>
<path d="M1508.4,308.6l-0.7-3.1l-1,0.4l-1.9-7.6l-14.1,3.8l2.7,10.3l8.5-2.1L1508.4,308.6z"/>
<path class="st0" d="M1459.3,359.6l7.9-7.9l10.2,8.8l13.6,8.9l11.1,5.8l12.7,4.4l17.4,3.8l20.3,1.5l12.6,0.1l18.4-1.7l2.9-3.4
	l-15.8-70.9l-4.5-1.7l-26.2,8.5l-2.9,4l-15.1,4.2l-5.3-20.1l13.6-3.8l5.3,1.9l28-8.1l2.7-5.3l-9.8-32.9l-14.1-35.3l-2.6-3.5
	l-2.1-2.9l-3.8-1.7l-3-0.8l-3.4,0.4l-37.4,30.5l-26.7,21.9l-21,17.2l-12.8,10.7l-8.3,7l-121,95.4"/>
<path class="st0" d="M1566.3,307.3l-1.3-6.4l-1.4-6.9"/>
<path class="st0" d="M1397.6,403l3.9-2.7l2.8-3.8l1.4-4.5l-0.1-4.7l-1.6-4.4l-3-3.7l-4-2.5l-4.6-1.1l-4.8,0.4l-4.4,2l-3.5,3.3
	l-2.2,4.3l-0.7,4.8l0.9,4.7l2.4,4.2l3.7,3.1l4.5,1.7l4.7,0.2L1397.6,403"/>
<path class="st0" d="M1405.4,354.1l12.3-32.6l6.2-16.5"/>
<path d="M1386.9,364.9l0.8,6.1l-6.3,2.4l-5.2,4.4l-3.4,5.9l-1.3,6.7l1,6.7l3.2,6l5,4.6l6.2,2.6l6.4,0.4l6.2-1.6l5.4-3.5l4-5l2.2-6.1
	l0.2-6.4l-1.9-6.2l-3.7-5.2l8.1-9.1l0.8,4.1l4.5,9.6l10.3,13.1l-0.5,10.3l-12.8,21.6l-34.6-3.1l0.4-3.8l-4.2-0.9l-4.6-2.9l-3.7-3.2
	l-3.3-1.9l-27.2,8.8l-3.5-13.3L1386.9,364.9z"/>
<path class="st0" d="M1408.4,504.1l-29.8-32.3l5.5-38.4"/>
<path class="st0" d="M1385.5,424.2l2.9-20.1"/>
<path class="st0" d="M1385.5,424.2l-1.3,9.1"/>
<path class="st0" d="M1300.3,394.7l-0.8,6.4l31.5,87.5l27,80.1l10.3,1.6l40.1-66.3l62.7-103.8l0.7-3.2l-1.1-3.2l-2.4-2.8l-8.3-9.3
	l-7.2-7.9l-3.2-3.7l9.6-10.7"/>
<path class="st0" d="M1378.6,471.8l-47.6,16.9"/>
<path class="st0" d="M1299.5,401.1l-12.3,10.1l-10,7.7"/>
<path class="st0" d="M1411.7,319.2l6,2.3"/>
<path class="st0" d="M1396.9,376.6l8.5-22.4"/>
<path class="st0" d="M1423.9,305.1l0.7-1.9l-3.2-4"/>
<path class="st0" d="M1427.9,290.1l1.8,2.1"/>
<polygon points="1480.4,0.5 1469.9,7.3 1465.9,0.5 "/>
<path class="st0" d="M1348.7,179.9l-50.3,33.5l-5.3,16.4l-32.4,21.3l-19.7,12.6"/>
<path class="st3" d="M2972.2-5001.1l20.2,24.2L2972.2-5001.1z"/>
<path class="st0" d="M1408,287.3l-13.4-17.2l-9.4,7.5"/>
<path class="st0" d="M1362.9,278.8l15.1,4.1l7.2-5.3"/>
<polygon points="1614.8,300.7 1614.8,316.3 1610,317.7 1605.7,303.4 "/>
<path class="st0" d="M1260.8,251.1l102.2,27.8"/>
<path class="st1" d="M-35471.2,27828.8l-16.2-9.2h-9.1h-9.9h-9.2l-22.5,1.4l-8.4,2.8l-15.5,9.2l-11.2,12.7l-16.2,8.5l-39.4,9.1
	h-11.3h-7.7l-16.2,2.1l-7.8,0.7l-26.7,7l-10.6,3.5l-11.2,9.2l-30.9,14.8l-14.1,5.6l-33.1,14.8l-10.6,4.2l-48.6,8.4h-6.3l-5.6,2.8
	l-7.7,2.8l-12.6,12.7l-7.7,9.2l-7,14.1l-6.3,11.3l-9.8,10.6l-18.3,14.8l-10.5,6.4l-14.1,6.3l-13.4,2.8h-16.2l-11.3,1.4l-47.1,12.7
	l-19,6.3l-11.2,4.9l-12,6.3l-10.6,7l-14.8,6.3l-13.4,7.8l-9.8,7l-14.1,12l-6.3,12l-5.6,9.8l-7,12l-2.8,8.4l-4.9,12l-7,16.2l-3.5,7
	l-3.8,12.2l-2.6,11.1l-2.6,12.5l-5,22.4l-17.2,18.1l-8.1,6.4l-14.4,6.5l-10.7,5.3l-12,7l-16.2,7.8l-12.7,5.6l-20.4,5.6l-28.8,9.2
	l-7.7,2.8l-26,10.6l-11.3,2.8l-15.5,4.2l-14.8,4.2l-11.3,3.2l-3.5,1l-11.2,4.9l-14.1,6.3l-15.5,5.6l-16.2,4.2l-20.4,4.9l-14.1,1.4
	h-13.4l-16.9-2.8h-4.9l-13.3,9.9l-7,9.2l-2.1,12.3l-5.6,16.5l-5.6,16.9l-16.5,17.2l-22.5,11.6"/>
<path class="st1" d="M-36637.5,28453.4l-13.2,9.1"/>
<path d="M1015.9,536.4L1038,516l3.1-2.7l-26.6-29.7l-5.9,5.7l-10.5,9L1015.9,536.4z"/>
<path d="M975.4,577.4l27.9-24.7l11.4-10.1l-8.6-9.8l-32.6,28.8l1.7,1.9l-6.7,5.9L975.4,577.4z"/>
<path class="st0" d="M1470,36.2l4.2,7.1"/>
<path class="st0" d="M1474.3,43.3l1.2,2"/>
<path class="st0" d="M1475.5,45.3l0.7,1.2"/>
<path class="st0" d="M1476.2,46.6l2.9,4.9"/>
<path class="st0" d="M1483.5,74.7L1472,55.6"/>
<path class="st0" d="M1479.1,51.5l-7.1,4.1"/>
<path class="st0" d="M1456.4,4.3l-25.9,16.3"/>
<path class="st0" d="M1407.4,32.5l-5.3-8.1"/>
<path class="st0" d="M1401.2,22.9l-4.4-6.9"/>
<path class="st0" d="M1402.2,24.4l-0.9-1.5"/>
<path class="st0" d="M1497.1,250.4l3.1,3.6l-4.5,3.8"/>
<path class="st0" d="M1490.3,242.5l6.9,7.9"/>
<path class="st0" d="M1489.5,262.8l6.2-5"/>
<path class="st0" d="M1463.5,264.4l23.1,19.2"/>
<line class="st0" x1="1284.7" y1="0.5" x2="1246.8" y2="22.3"/>
<path d="M1053.9,492.3l-21.7-22.7l8.4-8.2l10.6-10.4l8.5,10.7l4.9-4.3l1.5,1.9l4-3.6l1.1,2.2l8.4,16.5l0.5,1L1053.9,492.3z"/>
<path d="M1032.2,469.6l-14.8-14.7l-0.4-7.1l18.3-17l10.6,13.5l-11.2,10.8l6,6.2L1032.2,469.6z"/>
<path d="M1111.5,477.2l-8.9-15.8l-23,13l0.5,1l10.9,16.2L1111.5,477.2z"/>
<path d="M1079.7,474.4l-8.4-16.5l22.4-12.8l9,16.3L1079.7,474.4z"/>
<path d="M1093.7,445.1l-7.2-13l-20.1,11.2l7.1,9.8l-3.4,2.5l1.1,2.2L1093.7,445.1z"/>
<path d="M1086.5,432.2l-7.5-13.9l-21,15.2l8.4,9.9L1086.5,432.2z"/>
<path d="M1079,418.3l-9.1-17.1l-25.4,21.9l9.2,13.2l4.3-2.8L1079,418.3z"/>
<path d="M1044.5,423.1l-9.2,7.8l10.6,13.5l5.4,6.7l8.5,10.7l4.9-4.3l1.5,1.9l4-3.6l3.4-2.5l-7.1-9.8l-4.5,4.7l-8.2-11.8
	L1044.5,423.1z"/>
<path d="M975.4,577.4l1.5,6.6l20-6.1l-1.3-1.8l15.8-14.5l-8.1-8.8L975.4,577.4z"/>
<path d="M1128,416.2l9.8,18.4l31-16.4l-9.7-18.4L1128,416.2z"/>
<path d="M1428.3,167.3l6.1,9.5l2.1-1.4l7.9,11.6l12,18l-25.8,19.7l-22.4-33.5l-9.7,6.5l-2.9-4.4l22.7-14.7l-2.2-3.4L1428.3,167.3z"
	/>
<polygon points="820.8,847.9 823.9,856.4 820.4,857.2 820.4,826.8 827,837.9 829.7,844.6 "/>
<polygon points="831.3,876.1 820.4,879.5 812.2,882.1 805.2,861.4 811.1,859.3 820.4,857.2 823.9,856.4 "/>
<path d="M909.9,234.5l10.6,14.8l27.6-19.7l-4.1-5.7l-15,10.7l-6.5-9.1L909.9,234.5z"/>
<path d="M1194.2,133.5l13.2-9.5l9.8,0.5l2.4,2.3h-1.2l-5,1.6l-4.2,3.1l-3,4.3l-1.5,5.1l0.2,5.3l2.1,4.7L1194.2,133.5z"/>
<path class="st0" d="M1224,109l7,10.5l56.7-35.1"/>
<path d="M977.5,382.7l6.4,8l-3,2.4l1.9,2.3l-10.5,8.4l11,13.4l25.5-21.3l-19.1-23.2l-4.8,3.5L977.5,382.7z"/>
<path d="M983.3,417.3l-10.6,9.8l-12.3-13.7l11.9-9.6L983.3,417.3z"/>
<path d="M972.7,427.1l-3.1,2.8l1.2,1.3l-11.5,10.3l-10.4-11.6l1.2-1.1l-3.9-4.4l-1.5,1.4l-4-4.4l2.9-3.1l9.4-8.8l5.3,5.9l2.2-2
	L972.7,427.1z"/>
<path d="M984.9,376.4l-11.7-12.9l-18.5,16.8l9.9,11.3l11.9-10.2l1.1,1.3L984.9,376.4z"/>
<path d="M973.1,363.5l-14.7-16.2l-12,10l-6.4,6.8l14.6,16.2L973.1,363.5z"/>
<path d="M958.4,347.4l-13.8-16.3l-11.9,9.6l13.8,16.6L958.4,347.4z"/>
<path d="M932.6,340.7l-10.7,8.6l-13.5-16.8l16.3-13.1l4.1,5l6.3-5.1l9.5,11.7L932.6,340.7z"/>
<path d="M891.2,360.1l21.1,25.1l1.5-1.1l16.6-15.6l4.2-2l-11.2-13.3l-2,1.7l-9.9-11.8L891.2,360.1z"/>
<path d="M935.2,413.5l-4.5-4.8l2.1-2l-9.4-10.1l-1.4,1.4l-5-5.3l2.5-2.4l-5.8-6.1l16.6-15.6l9.7,10.3l-5.4,5l10.4,11.1l7.5-7
	l10.9,11.6l-10.6,9.9l-9.4,8.8l-5.6-6L935.2,413.5z"/>
<path d="M892.7,402.7l10.4,11.4l-12.5,10.7l-6.1,5.5l-10.2-12L892.7,402.7z"/>
<path d="M903.1,414.1l11,11.8l-9,8.1l-3.6,3.2l-11-12.4L903.1,414.1z"/>
<path d="M909,438.5l-3.3,2.9l3.9,4.3l-6.6,5.9l-3.5-3.9l-1.4,1.2l-3.8-4.3l-1.5,1.3l-5.5-6.2l-2,1.8l-6-6.8l5.1-4.5l6.1-5.5l11,12.4
	l3.6-3.2L909,438.5z"/>
<path d="M1302.3,93.9l5.8,8.9l31.4-19.8l2.1-3.7l1.4-5.2l0-7.5l-2.1-4.3l8.8-7l-6.6-8.5l-4.2,3.2l-8.8,5.5l4.9,9.2l0.9,3.2l0,2.1
	l-1.4,2.5l-1.1,1.3L1302.3,93.9z"/>
<path d="M1316.6,116.2l-3.7-6.3l43.1-31.4l-4.1-5.1l1.5-1.3l-4.8-6.6l5-3.5l2,2.8l11,16.2l-19,13.1l-7.9,5.5l-6.5,5.1L1316.6,116.2z
	"/>
<path d="M1325.2,130.7l-8.7-14.5l16.5-11.4l4.2,6.1l2.5-1.7l0.9,1.3l4.3-2.9l-5.4-7.8l7.9-5.5l12.4,17.9l-22,15.2l-2.5-3.6
	L1325.2,130.7z"/>
<path d="M1369.8,82.1l-1.4-2.1l-1.8,1.2l-11-16.2l3.9-2.6l-2.1-3.1l14.2-9.4l14.3,21.6L1369.8,82.1z"/>
<path d="M1385.9,71.2l-14.3-21.6l3.1-2.1l-2.3-3.4l17.1-11.4l1.5,2.2l3-2l15.1,22.7L1385.9,71.2z"/>
<path d="M1338.9,50l-1.7-2.7l4.9-3l-6.2-10.1l-2.2,1.4l-1.1-1.8l3.3-2l-7.5-12.2l-3.5,2.2l-0.9-1.4l-14.3,8.6l4.8,7.9l5.8-3.6
	l2.6,4.2l1.3-0.8l2,3.2l-8,5l6.3,10.1l3.7-2.3l1.8,2.9L1338.9,50z"/>
<path d="M1324.1,20.3l4.7-2.8l-5.1-8.4l-19,11.2l5.2,8.7L1324.1,20.3z"/>
<polygon points="1327.4,6.8 1323.6,9 1304.6,20.2 1295.4,4.6 1302.3,0.5 1313.6,-6.1 1316.1,-1.9 1320.7,-4.6 1323.7,0.5 "/>
<polygon points="1374.4,0.5 1359.9,9.1 1355,0.5 "/>
<path d="M1570.3,48l-0.3-1.3l-25.7,14.2l24.1,41l10.6,16.1l14.7-17.8l-10.6-23L1570.3,48z"/>
<path class="st0" d="M965.9,670l-3.8-9.4l-1.4-3.3"/>
<path class="st0" d="M969.2,678.6l-2-5.3l-1.3-3.3"/>
<polygon class="st3" points="876.8,935 854.8,942.1 851.7,932.4 876,932.4 "/>
<polygon class="st3" points="901.3,932.4 891.5,935.4 890.6,932.4 "/>
<polygon class="st3" points="1082.5,932.4 1062.4,939.4 1060.2,932.4 "/>
<polygon class="st3" points="1168.8,932.4 1161.5,934.8 1160.7,932.4 "/>
<polygon class="st3" points="1186.5,932.4 1178.6,935.1 1177.8,932.4 "/>
<polygon class="st3" points="1623.4,230 1614.8,232.8 1614.8,207.3 1615.7,206.9 "/>
<polygon class="st3" points="1622.1,0.5 1614.8,3.8 1614.8,0.5 "/>
<polygon class="st3" points="1622.9,66.6 1614.8,76 1614.8,65.9 1621.4,63.5 "/>
<polygon class="st3" points="1665.1,0.5 1657.1,0.5 1662.8,-2 1665.1,0.5 "/>
<polygon class="st3" points="1616.6,852.5 1614.8,853.1 1614.8,846.4 "/>
<polygon class="st3" points="1626.5,579.7 1614.8,583.1 1614.8,569.3 1622.9,567 "/>
<polygon class="st3" points="820.4,-0.7 820.4,0.5 810.7,0.5 "/>
<polygon class="st3" points="820.4,260.1 820.4,277.7 817.3,280.1 808.8,269.1 "/>
<polygon class="st3" points="820.4,680.9 820.4,688.2 817.3,682.6 "/>
<polygon class="st3" points="820.4,728.2 820.4,733.5 818.2,729.5 "/>
<polygon class="st3" points="820.4,857.2 820.4,879.5 812.2,882.1 805.2,861.4 811.1,859.3 "/>
<polygon class="st3" points="820.4,932.1 820.4,932.4 819.3,932.4 "/>
<polygon class="st3" points="1117.3,0.5 1114.8,0.5 1116.3,-0.7 "/>
<polygon class="st3" points="1213.3,0.5 1206.2,0.5 1211.4,-2.6 "/>
<polygon class="st3" points="1323.7,0.5 1302.3,0.5 1313.6,-6.1 1316.1,-1.9 1320.7,-4.6 "/>
<polygon class="st3" points="1488.1,-4.5 1491.3,0.5 1480.4,0.5 1496.3,-9.8 "/>
<polygon class="st3" points="1665.1,0.5 1657.1,0.5 1662.8,-2 1665.1,0.5 "/>
<path class="st5" d="M1450,58.6c-11.5,0-20.9,9.4-20.9,20.9c0,11.5,9.4,39.8,20.9,39.8c11.5,0,20.9-28.3,20.9-39.8
	C1470.9,67.9,1461.6,58.6,1450,58.6z M1450,93.5c-6.9,0-12.5-5.6-12.5-12.5c0-6.9,5.6-12.5,12.5-12.5c6.9,0,12.5,5.6,12.5,12.5
	C1462.6,87.9,1456.9,93.5,1450,93.5z"/>
<path class="st5" d="M1399,96.4c-11.5-0.3-21.1,8.8-21.4,20.4c-0.3,11.5,8.3,40,19.9,40.3c11.5,0.3,21.6-27.7,21.9-39.3
	C1419.7,106.3,1410.6,96.7,1399,96.4z M1398.2,131.3c-6.9-0.2-12.4-5.9-12.2-12.9c0.2-6.9,5.9-12.4,12.8-12.2
	c6.9,0.2,12.4,5.9,12.2,12.9C1410.8,126,1405.1,131.5,1398.2,131.3z"/>
<path class="st5" d="M1335.1,221c-11.5-0.3-21.1,8.8-21.4,20.4c-0.3,11.5,8.3,40,19.9,40.3c11.5,0.3,21.6-27.7,21.9-39.3
	C1355.7,230.9,1346.6,221.3,1335.1,221z M1334.2,255.9c-6.9-0.2-12.4-5.9-12.2-12.9c0.2-6.9,5.9-12.4,12.8-12.2
	c6.9,0.2,12.4,5.9,12.2,12.9C1346.9,250.7,1341.1,256.1,1334.2,255.9z"/>
<path class="st5" d="M1199.1,235.1c-11.5-0.3-21.1,8.8-21.4,20.4c-0.3,11.5,8.3,40,19.9,40.3c11.5,0.3,21.6-27.7,21.9-39.3
	C1219.7,245,1210.6,235.4,1199.1,235.1z M1198.2,270c-6.9-0.2-12.4-5.9-12.2-12.9c0.2-6.9,5.9-12.4,12.8-12.2
	c6.9,0.2,12.4,5.9,12.2,12.9C1210.9,264.7,1205.1,270.2,1198.2,270z"/>
<path class="st5" d="M975.9,672c-11.5-0.3-21.1,8.8-21.4,20.4c-0.3,11.5,8.3,40,19.9,40.3c11.5,0.3,21.6-27.7,21.9-39.3
	C996.6,681.9,987.5,672.3,975.9,672z M975.1,706.9c-6.9-0.2-12.4-5.9-12.2-12.9c0.2-6.9,5.9-12.4,12.8-12.2
	c6.9,0.2,12.4,5.9,12.2,12.9C987.7,701.6,982,707.1,975.1,706.9z"/>
</svg>
